<?xml version="1.0" encoding="utf-8"?>
<!-- Generator: Adobe Illustrator 24.0.3, SVG Export Plug-In . SVG Version: 6.00 Build 0)  -->
<svg version="1.0" id="Layer_1" xmlns="http://www.w3.org/2000/svg" xmlns:xlink="http://www.w3.org/1999/xlink" x="0px" y="0px"
	 viewBox="0 0 1455 1455" enable-background="new 0 0 1455 1455" xml:space="preserve">
<g>
	<g>
		<defs>
			<circle id="SVGID_3_" cx="727.5" cy="727.5" r="517.44"/>
		</defs>
		<clipPath id="SVGID_2_">
			<use xlink:href="#SVGID_3_"  overflow="visible"/>
		</clipPath>
		<g clip-path="url(#SVGID_2_)">
			<path d="M535.99,710.34h-18.73c-10.39,0-20.59-8.83-28.72-24.88c-6.61-13.03-10.71-28.55-10.71-40.5c0-7.57,0-20.25,3.98-31.66
				c5.37-15.39,16.35-23.52,31.75-23.52c22.57,0,43.13,20.74,43.13,43.51c0,3.87-3.13,7-7,7s-7-3.13-7-7
				c0-15.17-14.16-29.51-29.13-29.51c-9.4,0-15.12,4.36-18.53,14.13c-3.2,9.17-3.2,20.36-3.2,27.04c0,20.65,15.21,51.37,25.43,51.37
				h18.73c3.87,0,7,3.13,7,7S539.86,710.34,535.99,710.34z"/>
			<path d="M910.13,710.34H891.4c-3.87,0-7-3.13-7-7s3.13-7,7-7h18.73c10.22,0,25.43-30.73,25.43-51.37c0-6.69,0-17.88-3.2-27.05
				c-3.41-9.77-9.12-14.13-18.53-14.13c-14.97,0-29.13,14.34-29.13,29.51c0,3.87-3.13,7-7,7s-7-3.13-7-7
				c0-22.77,20.56-43.51,43.13-43.51c15.4,0,26.38,8.13,31.75,23.52c3.98,11.41,3.98,24.08,3.98,31.65c0,11.95-4.1,27.47-10.71,40.5
				C930.72,701.5,920.52,710.34,910.13,710.34z"/>
			<path d="M598.61,560.2c-1.47,0-2.92-0.64-3.91-1.88c-1.73-2.16-1.38-5.3,0.78-7.03c1.3-1.04,32.44-25.42,77.53-15.4
				c2.7,0.6,4.4,3.27,3.8,5.97c-0.6,2.7-3.27,4.39-5.97,3.8c-40.47-8.99-68.83,13.22-69.11,13.45
				C600.81,559.84,599.71,560.2,598.61,560.2z"/>
			<path d="M825.93,560.2c-1.09,0-2.19-0.36-3.11-1.09l0,0c-0.28-0.22-28.86-22.4-69.12-13.45c-2.7,0.6-5.37-1.1-5.97-3.8
				c-0.6-2.7,1.1-5.37,3.8-5.97c45.09-10.02,76.23,14.36,77.53,15.4c2.16,1.73,2.51,4.87,0.78,7.03
				C828.85,559.56,827.39,560.2,825.93,560.2z"/>
			<path d="M707.59,682.39c-1.99,0-3.87-1.2-4.65-3.16c-1.02-2.57,0.24-5.47,2.8-6.49c5.37-2.13,11.17-5.26,12.34-6.65
				c0.65-1.69,0.38-8.95-0.61-15.25c-0.43-2.73,1.43-5.29,4.16-5.72c2.73-0.43,5.29,1.43,5.72,4.16c0.77,4.89,2.26,16.8-0.6,21.82
				c-2.61,4.58-11.97,8.82-17.32,10.94C708.83,682.28,708.21,682.39,707.59,682.39z"/>
			<path d="M714.25,752.95c-30.08,0-52.33-24.67-53.27-25.72c-1.83-2.06-1.65-5.23,0.42-7.06c2.06-1.83,5.22-1.65,7.06,0.42
				c0.29,0.33,20.33,22.36,45.79,22.36c21.6,0,41.91-17.79,42.11-17.97c2.07-1.83,5.23-1.64,7.06,0.42
				c1.83,2.07,1.64,5.23-0.42,7.06C762.05,733.3,739.6,752.95,714.25,752.95z"/>
			<ellipse cx="638.29" cy="599.87" rx="10.58" ry="15.21"/>
			<ellipse cx="783.03" cy="599.87" rx="10.58" ry="15.21"/>
			<path d="M715.51,1300.53c-0.46,0-0.93-0.05-1.39-0.14l-314.01-63.48c-1.88-0.38-3.51-1.51-4.53-3.13l-76.71-121.67
				c-1.11-1.76-1.38-3.91-0.74-5.89c2.01-6.22,20.08-61.22,34.62-76.7c43.5-46.32,217.34-115.19,224.72-118.1
				c3.6-1.42,7.66,0.35,9.08,3.94c1.42,3.6-0.35,7.66-3.94,9.08c-1.78,0.7-178.28,70.62-219.65,114.66
				c-9.88,10.52-24.47,50.29-30.49,68.32l73.35,116.35l309.22,62.51l405.37-138.33c-11.26-22.69-47.12-93.11-67.74-112.52
				c-37.12-34.93-184.17-95.27-185.65-95.87c-3.58-1.46-5.29-5.55-3.83-9.13s5.55-5.29,9.13-3.83
				c6.15,2.51,150.94,61.94,189.94,98.63c26.45,24.89,72.31,119.71,74.25,123.73c0.87,1.8,0.92,3.89,0.15,5.74
				c-0.77,1.85-2.3,3.27-4.2,3.92l-414.69,141.51C717.04,1300.4,716.28,1300.53,715.51,1300.53z"/>
			<path d="M493.05,606.87c-2.6,0-5.1-1.45-6.3-3.95c-0.92-1.9-22.51-47.46-22.51-123.78c0-27.13,0-64.28,14.19-95.21
				c16.83-36.67,49.78-55.67,97.97-56.49c41.27-47.73,116.3-52.96,147.04-52.96c43.56,0,81.22,6.59,111.92,19.59
				c28.65,12.13,52.15,30.2,69.86,53.71c29.84,39.62,44.34,95.47,44.34,170.73c0,16.7-4.83,64.82-5.04,66.86
				c-0.39,3.85-3.83,6.64-7.67,6.26c-3.85-0.39-6.65-3.82-6.26-7.67c0.05-0.49,4.96-49.46,4.96-65.46
				c0-72.11-13.58-125.2-41.53-162.31c-16.2-21.52-37.78-38.09-64.13-49.24c-28.97-12.26-64.79-18.48-106.47-18.48
				c-29.27,0-101.35,4.91-138.32,50.35c-1.33,1.63-3.32,2.58-5.43,2.58c-44.64,0-73.6,15.82-88.53,48.36
				c-12.92,28.15-12.92,63.54-12.92,89.37c0,72.87,20.91,117.25,21.12,117.69c1.67,3.48,0.21,7.66-3.27,9.34
				C495.1,606.64,494.07,606.87,493.05,606.87z"/>
			<path d="M536.67,591.79c-0.27,0-0.54-0.02-0.81-0.05c-3.84-0.44-6.6-3.91-6.16-7.75c9.28-80.92,36.59-116.08,88.56-113.98
				c3.75,0.15,6.72,3.24,6.72,6.99c0,19.09,2.29,28.05,6.46,44.33c0.51,2.01,1.07,4.17,1.65,6.48
				c30.79-4.39,64.22-44.48,78.96-62.16c2.72-3.26,4.86-5.83,6.49-7.61c1.33-1.45,3.2-2.27,5.16-2.27c3.29,0,6.18,1.38,8.13,3.87
				c4.59,5.88,2.48,15.56-1.34,30.86c-1.27,5.1-3.24,12.98-3.55,17.26c29.07-1.44,42.51-22.1,52.41-37.33
				c3.34-5.14,6.22-9.57,9.34-12.65c1.43-1.42,3.41-2.14,5.42-2c3.18,0.23,5.92,1.73,7.71,4.24c4.34,6.06,1.72,16-1.31,27.51
				c-0.89,3.4-2.22,8.43-2.75,11.82c18.46-1.27,33.11-11.2,48.32-32.53c1.24-1.74,3.2-2.81,5.33-2.93c2.13-0.11,4.19,0.75,5.61,2.35
				c16.02,18.06,27.34,43.53,33.65,75.71c4.65,23.71,4.71,42.05,4.71,42.82c0,3.87-3.13,7-7,7c-3.86,0-7-3.13-7-7l0,0
				c0-0.66-0.42-62.97-29.42-102.52c-17.34,21.53-35.61,31.24-58.35,31.24c-3.14,0-5.88-1.32-7.73-3.71
				c-4.19-5.44-2.08-13.78,0.95-25.29c-11.07,16.24-28.98,37.35-63.13,37.35c-3.3,0-6.18-1.38-8.13-3.87
				c-4.59-5.88-2.48-15.56,1.34-30.86c0.55-2.21,1.23-4.94,1.86-7.67c-19.48,23.16-54.97,62.76-91.06,62.76
				c-3.23,0-6.04-2.21-6.8-5.35c-1.08-4.46-2.12-8.49-3.03-12.05c-3.67-14.32-6.23-24.36-6.79-40.86
				c-28.7,0.81-57.71,16.46-67.48,101.64C543.21,589.15,540.18,591.79,536.67,591.79z"/>
			<path d="M712.72,842.7c-37.99,0-75.7-13.82-109.05-39.96c-31-24.3-56.61-57.68-74.07-96.53l12.77-5.74
				c35.01,77.9,101.87,128.23,170.35,128.23c34.95,0,69.78-12.86,100.7-37.18c29.3-23.05,53.49-54.77,69.96-91.75l12.79,5.7
				c-17.4,39.05-43.02,72.61-74.1,97.06C788.66,828.81,750.84,842.7,712.72,842.7z"/>
			<path d="M703.4,999.88c-3.44,0-6.44-2.54-6.92-6.04l-9.35-67.44c-34.33-9.9-65.04-48.64-78.38-67.59l-28.99,60.66l57.38,61.87
				l30.9-50.51c2.02-3.3,6.33-4.34,9.62-2.32c3.3,2.02,4.34,6.33,2.32,9.62l-35.72,58.39c-1.14,1.87-3.1,3.1-5.28,3.31
				c-2.18,0.22-4.34-0.6-5.83-2.21l-66.89-72.13c-1.95-2.1-2.42-5.19-1.18-7.78l36.34-76.06c1.11-2.31,3.39-3.84,5.95-3.97
				c2.57-0.14,4.99,1.14,6.33,3.33c0.1,0.16,10.25,16.58,25.55,33.8c19.67,22.15,38.88,35.66,55.55,39.06
				c2.91,0.59,5.13,2.96,5.53,5.9l10,72.13c0.53,3.83-2.14,7.36-5.97,7.9C704.04,999.86,703.72,999.88,703.4,999.88z"/>
			<path d="M788.53,1002.88c-0.23,0-0.46-0.01-0.69-0.03c-2.18-0.22-4.13-1.44-5.28-3.31l-35.72-58.39
				c-2.02-3.3-0.98-7.61,2.32-9.62c3.3-2.02,7.61-0.98,9.62,2.32l30.9,50.51l57.38-61.87l-28.99-60.66
				c-13.36,18.99-44.19,57.86-78.61,67.66l-12.17,64.7c-0.71,3.8-4.37,6.3-8.17,5.59c-3.8-0.71-6.3-4.37-5.59-8.17l13-69.13
				c0.53-2.8,2.69-5,5.48-5.56c16.67-3.4,35.88-16.91,55.55-39.06c15.3-17.23,25.45-33.64,25.55-33.81
				c1.34-2.18,3.77-3.45,6.33-3.32c2.56,0.14,4.84,1.66,5.95,3.97l36.34,76.06c1.24,2.59,0.77,5.67-1.18,7.78l-66.89,72.13
				C792.33,1002.08,790.46,1002.88,788.53,1002.88z"/>
			<g>
				<path d="M733.4,930.75c-3.26,0-6.17-2.29-6.85-5.6c-0.77-3.79,1.67-7.49,5.46-8.26c37.84-7.73,74.43-62.47,80.29-71.58v-35.55
					c-30.94,21.6-65.1,32.94-99.58,32.94c-33.28,0-66.4-10.63-96.52-30.87v33.04c9.01,13.55,43.27,61.8,78.62,69.02
					c3.79,0.77,6.23,4.47,5.46,8.26c-0.77,3.79-4.47,6.24-8.26,5.46c-18.23-3.72-37.67-16.35-57.77-37.54
					c-15.42-16.26-26.76-32.89-30.91-39.28l-1.13-1.74v-65.13l11.28,8.71c30.56,23.6,64.88,36.08,99.25,36.08
					c35.55,0,70.89-13.27,102.2-38.39l11.38-9.13v97.84l-8.23-17.21c-13.96,19.84-46.98,61.39-83.26,68.79
					C734.34,930.71,733.87,930.75,733.4,930.75z"/>
			</g>
			<path d="M819.08,847.69l0.22,0.47v-52.39c-30.82,24.72-67.38,39.93-106.58,39.93c-36.44,0-70.59-13.15-99.98-34.86
				c5.24,9.78,42.71,68.59,186.97,73.51C811.66,859.77,819.08,847.69,819.08,847.69z"/>
			<path d="M711.96,1049.11c-8.77,0-17.5-0.54-26.2-1.62c-54.64-6.8-96.95-34.32-122.82-56.2c-27.97-23.66-42.96-45.52-43.58-46.44
				c-2.17-3.2-1.34-7.55,1.86-9.72c3.2-2.17,7.55-1.34,9.72,1.85c0.22,0.32,14.84,21.54,41.42,43.94
				c24.39,20.55,64.18,46.38,115.28,52.7c70.42,8.71,144.29-20.79,219.58-87.68c2.89-2.57,7.32-2.31,9.88,0.58
				c2.57,2.89,2.31,7.31-0.58,9.88C847.18,1018.01,778.49,1049.11,711.96,1049.11z"/>
		</g>
	</g>
	<path d="M727.5,1254.94c-71.2,0-140.27-13.95-205.31-41.45c-62.81-26.57-119.21-64.59-167.65-113.03
		c-48.44-48.44-86.46-104.84-113.03-167.65c-27.51-65.03-41.45-134.11-41.45-205.31s13.95-140.27,41.45-205.31
		c26.57-62.81,64.59-119.21,113.03-167.65c48.44-48.44,104.84-86.46,167.65-113.03c65.03-27.51,134.11-41.45,205.31-41.45
		s140.27,13.95,205.31,41.45c62.81,26.57,119.21,64.59,167.65,113.03c48.44,48.44,86.46,104.84,113.03,167.65
		c27.51,65.03,41.45,134.11,41.45,205.31s-13.95,140.27-41.45,205.31c-26.57,62.81-64.59,119.21-113.03,167.65
		c-48.44,48.44-104.84,86.46-167.65,113.03C867.77,1240.99,798.7,1254.94,727.5,1254.94z M727.5,220.06
		c-68.51,0-134.96,13.42-197.51,39.87c-60.42,25.56-114.69,62.15-161.3,108.75s-83.19,100.87-108.75,161.3
		c-26.46,62.55-39.87,129.01-39.87,197.51s13.42,134.96,39.87,197.51c25.56,60.42,62.15,114.69,108.75,161.3
		s100.87,83.19,161.3,108.75c62.55,26.46,129.01,39.87,197.51,39.87s134.96-13.42,197.51-39.87
		c60.42-25.56,114.69-62.15,161.3-108.75s83.19-100.87,108.75-161.3c26.46-62.55,39.87-129.01,39.87-197.51
		s-13.42-134.96-39.87-197.51c-25.56-60.42-62.15-114.69-108.75-161.3s-100.87-83.19-161.3-108.75
		C862.46,233.48,796.01,220.06,727.5,220.06z"/>
</g>
</svg>
