<?xml version="1.0" encoding="utf-8"?>
<!-- Generator: Adobe Illustrator 24.0.3, SVG Export Plug-In . SVG Version: 6.00 Build 0)  -->
<svg version="1.0" id="Layer_1" xmlns="http://www.w3.org/2000/svg" xmlns:xlink="http://www.w3.org/1999/xlink" x="0px" y="0px"
	 viewBox="0 0 1455 1455" enable-background="new 0 0 1455 1455" xml:space="preserve">
<g>
	<g>
		<defs>
			<circle id="SVGID_5_" cx="727.5" cy="727.5" r="517.44"/>
		</defs>
		<clipPath id="SVGID_2_">
			<use xlink:href="#SVGID_5_"  overflow="visible"/>
		</clipPath>
		<g clip-path="url(#SVGID_2_)">
			<path d="M901.56,702.3c-7.66,0-24.26-3.77-26.13-4.2c-3.77-0.87-6.12-4.62-5.25-8.39c0.87-3.77,4.62-6.12,8.39-5.25
				c6.46,1.49,18.41,3.85,22.99,3.85c17.97,0,32.58-23.12,32.58-51.55c0-21.21-10.11-33.88-19.89-33.88
				c-5.61,0-12.13,5.11-18.37,14.39c-5.38,8-8.52,16.03-8.55,16.11c-1.4,3.6-5.45,5.39-9.06,3.99c-3.6-1.4-5.39-5.45-3.99-9.06
				c1.57-4.04,15.99-39.43,39.97-39.43c16.43,0,33.89,16.78,33.89,47.88C948.14,673.51,927.68,702.3,901.56,702.3z"/>
			<path d="M563.63,702.3c-26.12,0-46.58-28.79-46.58-65.55c0-31.1,17.46-47.88,33.89-47.88c10.72,0,20.81,6.92,29.99,20.58
				c6.24,9.28,9.83,18.47,9.98,18.86c1.4,3.6-0.39,7.66-3.99,9.06c-3.6,1.4-7.66-0.39-9.06-3.99c-3.09-7.92-14.66-30.5-26.92-30.5
				c-9.78,0-19.89,12.67-19.89,33.88c0,28.42,14.62,51.55,32.58,51.55c4.57,0,16.53-2.36,22.99-3.85c3.76-0.87,7.52,1.48,8.39,5.25
				c0.87,3.77-1.48,7.52-5.25,8.39C587.89,698.53,571.29,702.3,563.63,702.3z"/>
			<path d="M732.44,745.46c-8.37,0-17.59-4.73-27.42-14.06c-6.94-6.59-11.66-13.12-11.86-13.39c-1.61-2.24-1.1-5.37,1.14-6.98
				c2.24-1.61,5.36-1.1,6.98,1.14l0,0c4.67,6.48,19.37,23.29,31.16,23.29c10.32,0,24.16-13.67,28.62-18.93
				c1.79-2.11,4.94-2.37,7.05-0.58c2.11,1.78,2.37,4.93,0.59,7.04C766.76,725.29,749.22,745.46,732.44,745.46z"/>
			<ellipse cx="661.09" cy="608.61" rx="14.31" ry="19.08"/>
			<ellipse cx="801.8" cy="608.61" rx="14.31" ry="19.08"/>
			<path d="M732.45,683.46c-1.36,0-2.72-0.55-3.71-1.64c-1.85-2.05-1.7-5.21,0.35-7.06c3.57-3.25,7.81-8.37,8.17-10.52
				c0.45-2.7-1.21-14.38-3.01-23.66c-0.53-2.71,1.24-5.33,3.96-5.86c2.71-0.53,5.33,1.25,5.86,3.96c0.96,4.94,4.02,21.5,3.06,27.22
				c-1.13,6.76-9.62,14.74-11.32,16.27C734.85,683.03,733.64,683.46,732.45,683.46z"/>
			<path d="M629.3,559.55c-1.55,0-3.08-0.72-4.05-2.07c-1.62-2.23-1.13-5.35,1.1-6.97c0.77-0.56,19.08-13.68,42.69-13.68
				c7.74,0,27.42,5.9,29.64,6.58c2.64,0.8,4.13,3.59,3.33,6.24c-0.8,2.64-3.59,4.14-6.24,3.33c-7.83-2.38-22.02-6.15-26.73-6.15
				c-20.28,0-36.65,11.65-36.82,11.77C631.34,559.24,630.32,559.55,629.3,559.55z"/>
			<path d="M837.93,559.55c-1.02,0-2.04-0.31-2.93-0.95c-0.24-0.17-16.59-11.77-36.82-11.77c-4.72,0-18.9,3.77-26.73,6.15
				c-2.65,0.8-5.43-0.69-6.24-3.33c-0.8-2.64,0.69-5.43,3.33-6.24c2.22-0.67,21.89-6.58,29.64-6.58c23.62,0,41.92,13.12,42.69,13.68
				c2.23,1.62,2.73,4.75,1.1,6.98C841,558.84,839.47,559.55,837.93,559.55z"/>
			<path d="M737.91,823.12c-21.83,0-54.37-13.07-87.06-34.96c-32.25-21.6-57.1-46.51-66.48-66.65c-0.43-0.93-0.65-1.93-0.65-2.96
				c0-21.1-2.16-53.85-4.25-85.52c-2.12-32.16-4.31-65.42-4.31-87.35c0-2.59,1.43-4.97,3.73-6.19
				c52.43-27.75,60.77-80.53,60.85-81.06c0.42-2.83,2.51-5.13,5.29-5.79c2.78-0.66,5.69,0.41,7.34,2.74
				c5.2,7.23,22.63,24.57,51.26,38.35c60.07,28.92,130.58,25.34,179.16,17.25c1.99-0.33,4.03,0.21,5.59,1.49
				c1.56,1.28,2.49,3.17,2.56,5.19l1.17,36.35c0,0.08,0,0.15,0,0.23c0,19.22-1.97,45.6-4.05,73.52c-2.21,29.67-4.5,60.35-4.5,83.94
				c0,0.96-0.2,1.91-0.58,2.78C864.37,757.4,791.99,823.12,737.91,823.12z M597.71,716.95c8.77,17.48,31.92,40.15,60.93,59.58
				c30.02,20.1,60.39,32.59,79.27,32.59c21.35,0,49.67-13.02,77.7-35.72c24.31-19.69,45.31-44.32,53.95-63.19
				c0.09-23.89,2.35-54.18,4.54-83.49c2.06-27.6,4.01-53.68,4.01-72.37l-0.91-28.3c-37.65,5.63-72.98,6.29-105.11,1.95
				c-27.68-3.74-53.08-11.18-75.49-22.11c-22.65-11.05-37.65-23.4-46.31-31.91c-5.92,18.93-21.65,53.39-61.11,75.83
				c0.25,21.43,2.28,52.34,4.26,82.3C595.49,663.23,597.61,695.38,597.71,716.95z"/>
			<path d="M737.91,816.12c-19.64,0-47.24-11.39-73.48-27.56c0.15,0.51,20.46,68.24,149.44,59.23l-10.21-56.79
				C781.8,805.86,758.37,816.12,737.91,816.12z"/>
			<path d="M743.05,1278.41c-50.72,0-102.44-8.58-153.72-25.49c-40.95-13.51-81.71-32.33-121.16-55.95
				c-67.17-40.21-106.7-79.86-108.35-81.53l-3.25-3.29l1.75-4.28c1.47-3.6,36.39-88.54,61.77-110.79
				c21.66-18.99,59.84-35.67,100.26-53.33c51.97-22.71,105.71-46.18,125.55-75.1c7.85-11.44,11.25-55.24,11.54-80.16l0.15-12.36
				l10.53,6.48c27.35,16.85,52.8,26.52,69.81,26.52c17.42,0,38.79-8.27,61.82-23.91l9.59-6.51l1.3,11.52
				c2.76,24.05,10.1,66.07,18.05,76.4c19.8,25.72,68.53,48.19,115.66,69.93c41.64,19.2,80.97,37.34,102.1,58.02
				c24.34,23.81,49.73,111.99,50.8,115.74l1.21,4.24l-3.3,2.92c-0.45,0.4-46.17,40.68-111.85,80.34
				c-38.64,23.33-76.58,41.94-112.77,55.29C825.03,1269.89,782.14,1278.41,743.05,1278.41z M373.08,1108.8
				c10.83,10.26,47.66,43.51,102.63,76.37c38.53,23.04,78.31,41.38,118.24,54.53c49.79,16.39,99.95,24.71,149.1,24.71
				c84.96,0,173.48-42.66,232.79-78.45c54.6-32.95,95.13-66.29,106.68-76.1c-8.11-27.29-28.83-88.61-45.88-105.29
				c-19.4-18.98-57.66-36.63-98.17-55.31c-48.67-22.44-98.99-45.65-120.89-74.1c-10.08-13.09-16.7-52.72-19.44-72.29
				c-16.95,10.28-38.9,20.25-60.23,20.25c-17.24,0-41.16-8.12-66.81-22.51c-0.84,20.81-3.73,61.47-13.67,75.95
				c-22.11,32.22-77.71,56.51-131.49,80c-39.4,17.21-76.61,33.47-96.64,51.03C411.36,1023.34,384.22,1082.3,373.08,1108.8z"/>
			<path d="M1026.15,993.73l-26.12-14.42c-18.21-10.05-39.27-19.76-61.56-30.04c-48.67-22.45-98.99-45.66-120.89-74.1
				c-10.08-13.09-16.7-52.72-19.44-72.29c-16.95,10.28-38.9,20.25-60.23,20.25c-17.24,0-41.16-8.12-66.81-22.51
				c-0.84,20.81-3.73,61.47-13.67,75.95c-22.11,32.22-77.71,56.51-131.49,80.01c-17.98,7.86-34.97,15.28-50.53,22.89l-14.03,6.86
				l4.21-15.04c0.34-1.23,34.31-123.71,34.31-223.62V645.66c-0.05-2.83-0.74-49.41,10.04-108.43c6.41-35.09,15.57-67.21,27.24-95.46
				c14.69-35.58,33.42-65.14,55.68-87.86c37.27-38.03,84.63-57.32,140.77-57.32c60.04,0,109.77,19.98,147.81,59.39
				c20.54,21.28,37.71,48.36,51.03,80.47c10.58,25.5,18.77,54.24,24.35,85.41c9.31,52.01,8.2,92.63,8.1,95.7l-0.01,138.74
				c-0.06,1.4-5.47,141.09,44.25,212.9L1026.15,993.73z M733.63,310.59c-52.22,0-96.21,17.86-130.74,53.09
				c-47.69,48.65-69.35,122.44-79.12,175.77c-10.68,58.28-9.88,105.53-9.87,106l0,0.14v102.08c0,81.26-21.94,176.78-30.99,212.74
				c11.89-5.5,24.4-10.97,37.43-16.66c51.97-22.71,105.71-46.19,125.55-75.1c7.85-11.44,11.25-55.24,11.54-80.16l0.15-12.36
				l10.53,6.48c27.35,16.85,52.8,26.52,69.81,26.52c17.42,0,38.79-8.27,61.82-23.91l9.59-6.51l1.3,11.52
				c2.76,24.05,10.1,66.07,18.05,76.4c19.8,25.72,68.53,48.19,115.66,69.93c14.19,6.55,27.89,12.86,40.74,19.22
				c-15.14-30.28-25.46-69.96-30.75-118.4c-4.8-43.94-3.53-78.55-3.41-81.51l0-138.66c0.01-0.41,1.32-41.63-7.94-93.19
				c-15.35-85.44-47.44-133.26-71.65-158.33C836.04,329.12,789.71,310.59,733.63,310.59z"/>
			<path d="M742.32,1082.77c-0.79,0-1.59-0.13-2.36-0.41c-19.56-6.99-49.46-37.43-88.86-90.45c-28.88-38.86-52.67-76.3-52.91-76.67
				c-2.07-3.26-1.1-7.59,2.16-9.66c3.27-2.07,7.59-1.1,9.66,2.16c24.98,39.37,95.43,141.92,131.03,159.87
				c16.08-14.18,88.16-80.43,126.8-160.72c1.68-3.48,5.86-4.95,9.34-3.27s4.95,5.86,3.27,9.34
				c-44.79,93.06-130.05,165.16-133.65,168.18C745.53,1082.21,743.94,1082.77,742.32,1082.77z"/>
		</g>
	</g>
	<path d="M727.5,1254.94c-71.2,0-140.27-13.95-205.31-41.45c-62.81-26.57-119.21-64.59-167.65-113.03
		c-48.44-48.44-86.46-104.84-113.03-167.65c-27.51-65.03-41.45-134.11-41.45-205.31s13.95-140.27,41.45-205.31
		c26.57-62.81,64.59-119.21,113.03-167.65c48.44-48.44,104.84-86.46,167.65-113.03c65.03-27.51,134.11-41.45,205.31-41.45
		s140.27,13.95,205.31,41.45c62.81,26.57,119.21,64.59,167.65,113.03c48.44,48.44,86.46,104.84,113.03,167.65
		c27.51,65.03,41.45,134.11,41.45,205.31s-13.95,140.27-41.45,205.31c-26.57,62.81-64.59,119.21-113.03,167.65
		c-48.44,48.44-104.84,86.46-167.65,113.03C867.77,1240.99,798.7,1254.94,727.5,1254.94z M727.5,220.06
		c-68.51,0-134.96,13.42-197.51,39.87c-60.42,25.56-114.69,62.15-161.3,108.75s-83.19,100.87-108.75,161.3
		c-26.46,62.55-39.87,129.01-39.87,197.51s13.42,134.96,39.87,197.51c25.56,60.42,62.15,114.69,108.75,161.3
		s100.87,83.19,161.3,108.75c62.55,26.46,129.01,39.87,197.51,39.87s134.96-13.42,197.51-39.87
		c60.42-25.56,114.69-62.15,161.3-108.75s83.19-100.87,108.75-161.3c26.46-62.55,39.87-129.01,39.87-197.51
		s-13.42-134.96-39.87-197.51c-25.56-60.42-62.15-114.69-108.75-161.3s-100.87-83.19-161.3-108.75
		C862.46,233.48,796.01,220.06,727.5,220.06z"/>
</g>
</svg>
