<?xml version="1.0" encoding="utf-8"?>
<!-- Generator: Adobe Illustrator 24.0.3, SVG Export Plug-In . SVG Version: 6.00 Build 0)  -->
<svg version="1.0" id="Layer_1" xmlns="http://www.w3.org/2000/svg" xmlns:xlink="http://www.w3.org/1999/xlink" x="0px" y="0px"
	 viewBox="0 0 1455 1455" enable-background="new 0 0 1455 1455" xml:space="preserve">
<g>
	<g>
		<defs>
			<circle id="SVGID_9_" cx="727.5" cy="727.5" r="517.44"/>
		</defs>
		<clipPath id="SVGID_2_">
			<use xlink:href="#SVGID_9_"  overflow="visible"/>
		</clipPath>
		<g clip-path="url(#SVGID_2_)">
			<path d="M737.91,823.12c-21.83,0-54.37-13.07-87.06-34.96c-32.25-21.6-57.1-46.51-66.48-66.65l-0.65-1.41v-1.55
				c0-21.1-2.16-53.85-4.25-85.52c-2.12-32.16-4.31-65.42-4.31-87.35c0-3.87,3.13-7,7-7s7,3.13,7,7c0,21.46,2.18,54.49,4.28,86.43
				c2.05,31.11,4.17,63.26,4.27,84.83c8.77,17.48,31.92,40.15,60.93,59.58c30.02,20.1,60.39,32.59,79.27,32.59
				c21.35,0,49.67-13.02,77.7-35.72c24.31-19.69,45.31-44.32,53.95-63.19c0.09-23.89,2.35-54.18,4.54-83.49
				c2.06-27.66,4.01-53.78,4.01-72.48c0-3.87,3.13-7,7-7s7,3.13,7,7c0,19.22-1.97,45.6-4.05,73.52c-2.21,29.67-4.5,60.35-4.5,83.94
				v1.45l-0.58,1.33C864.37,757.4,791.99,823.12,737.91,823.12z M597.72,718.56L597.72,718.56L597.72,718.56z"/>
			<path d="M901.56,702.3c-7.66,0-24.26-3.77-26.13-4.2c-3.77-0.87-6.12-4.62-5.25-8.39c0.87-3.77,4.62-6.12,8.39-5.25
				c6.46,1.49,18.41,3.85,22.99,3.85c17.97,0,32.58-23.12,32.58-51.55c0-21.21-10.11-33.88-19.89-33.88
				c-12.26,0-23.83,22.59-26.92,30.5c-1.4,3.6-5.46,5.38-9.06,3.98c-3.6-1.4-5.39-5.45-3.99-9.05c1.57-4.04,15.99-39.43,39.97-39.43
				c16.43,0,33.89,16.78,33.89,47.88C948.14,673.51,927.68,702.3,901.56,702.3z"/>
			<path d="M563.63,702.3c-26.12,0-46.58-28.79-46.58-65.55c0-31.1,17.46-47.88,33.89-47.88c10.72,0,20.81,6.92,29.99,20.58
				c6.24,9.28,9.83,18.47,9.98,18.86c1.4,3.6-0.39,7.66-3.99,9.06c-3.6,1.39-7.65-0.39-9.06-3.99l0,0
				c-3.09-7.91-14.66-30.5-26.92-30.5c-9.78,0-19.89,12.67-19.89,33.88c0,28.42,14.62,51.55,32.58,51.55
				c4.57,0,16.53-2.36,22.99-3.85c3.77-0.87,7.52,1.48,8.39,5.25c0.87,3.77-1.48,7.52-5.25,8.39
				C587.89,698.53,571.29,702.3,563.63,702.3z"/>
			<path d="M732.44,745.46c-18.31,0-37.23-12.69-38.02-13.23c-2.29-1.55-2.88-4.66-1.33-6.94c1.55-2.28,4.66-2.88,6.94-1.33l0,0
				c0.17,0.12,17.21,11.51,32.41,11.51c13.68,0,30.26-7.21,30.43-7.28c2.53-1.11,5.48,0.04,6.59,2.57c1.11,2.53-0.04,5.48-2.56,6.59
				C766.14,737.67,748.26,745.46,732.44,745.46z"/>
			<ellipse cx="661.09" cy="608.61" rx="14.31" ry="19.08"/>
			<ellipse cx="801.8" cy="608.61" rx="14.31" ry="19.08"/>
			<path d="M732.45,683.46c-1.36,0-2.72-0.55-3.71-1.64c-1.85-2.05-1.7-5.21,0.35-7.06c3.57-3.25,7.81-8.37,8.17-10.52
				c0.45-2.7-1.21-14.39-3.01-23.66c-0.53-2.71,1.24-5.33,3.96-5.86c2.71-0.53,5.33,1.25,5.86,3.96c0.96,4.94,4.02,21.5,3.06,27.22
				c-1.13,6.75-9.62,14.74-11.32,16.28C734.85,683.03,733.64,683.46,732.45,683.46z"/>
			<path d="M629.3,559.55c-1.55,0-3.08-0.72-4.05-2.07c-1.62-2.23-1.13-5.35,1.1-6.97c0.77-0.56,19.08-13.68,42.69-13.68
				c7.74,0,27.42,5.9,29.64,6.58c2.64,0.8,4.13,3.59,3.33,6.24c-0.8,2.64-3.59,4.14-6.24,3.33c-7.83-2.38-22.02-6.14-26.73-6.14
				c-20.28,0-36.65,11.65-36.82,11.77C631.34,559.24,630.32,559.55,629.3,559.55z"/>
			<path d="M837.93,559.55c-1.02,0-2.04-0.31-2.93-0.95c-0.24-0.17-16.59-11.77-36.82-11.77c-4.72,0-18.9,3.77-26.73,6.14
				c-2.64,0.81-5.43-0.69-6.24-3.33c-0.8-2.64,0.69-5.43,3.33-6.24c2.22-0.67,21.89-6.58,29.64-6.58
				c23.62,0,41.92,13.12,42.69,13.68c2.23,1.62,2.73,4.75,1.1,6.99C841,558.84,839.47,559.55,837.93,559.55z"/>
			<path d="M583.79,597.3c-1.55,0-3.11-0.51-4.4-1.56c-3-2.43-3.46-6.84-1.03-9.85c90.95-112.19,150.13-163.51,150.71-164.02
				c1.49-1.28,3.44-1.87,5.39-1.65c1.95,0.23,3.71,1.27,4.86,2.86c0.53,0.74,54.53,75.03,149.09,153.48
				c2.98,2.47,3.39,6.88,0.92,9.86c-2.47,2.97-6.88,3.39-9.86,0.92c-80.12-66.47-131.64-130.14-146.82-149.85
				c-16.6,15.25-69.25,65.73-143.41,157.22C587.85,596.42,585.83,597.3,583.79,597.3z"/>
			<path d="M737.91,816.12c-19.64,0-47.24-11.39-73.48-27.56c0.15,0.51,20.46,68.24,149.44,59.23l-10.21-56.79
				C781.8,805.86,758.37,816.12,737.91,816.12z"/>
			<path d="M743.05,1278.41c-50.72,0-102.44-8.58-153.72-25.49c-40.95-13.51-81.71-32.33-121.16-55.95
				c-67.17-40.21-106.7-79.86-108.35-81.53l-3.25-3.29l1.75-4.28c1.47-3.6,36.39-88.54,61.77-110.79
				c21.66-18.99,59.83-35.67,100.25-53.33c6.45-2.82,12.94-5.65,19.4-8.51c3.53-1.57,7.67,0.03,9.24,3.56
				c1.57,3.54-0.03,7.67-3.56,9.24c-6.48,2.87-12.99,5.72-19.46,8.54c-39.4,17.21-76.61,33.47-96.63,51.03
				c-17.95,15.74-45.09,74.69-56.23,101.2c10.83,10.26,47.66,43.51,102.63,76.37c38.53,23.04,78.31,41.38,118.24,54.53
				c49.79,16.39,99.95,24.71,149.1,24.71c84.96,0,173.48-42.66,232.79-78.45c54.6-32.95,95.13-66.29,106.68-76.1
				c-8.11-27.29-28.83-88.61-45.88-105.29c-19.4-18.98-57.66-36.63-98.17-55.31c-48.67-22.45-98.99-45.65-120.89-74.1
				c-10.1-13.12-16.71-52.72-19.45-72.29c-16.95,10.28-38.89,20.24-60.22,20.24c-17.24,0-41.16-8.12-66.82-22.52
				c-0.85,20.82-3.77,61.55-13.66,75.96c-2.19,3.19-6.55,4-9.73,1.81c-3.19-2.19-4-6.54-1.81-9.73
				c7.86-11.46,11.21-54.22,11.54-80.17l0.16-12.35l10.51,6.47c27.35,16.85,52.8,26.52,69.81,26.52c17.42,0,38.79-8.27,61.82-23.91
				l9.59-6.52l1.29,11.53c2.75,24.04,10.09,66.06,18.05,76.4c19.8,25.72,68.53,48.19,115.66,69.93
				c41.64,19.2,80.97,37.34,102.1,58.02c24.34,23.82,49.73,112,50.8,115.74l1.21,4.24l-3.3,2.92c-0.45,0.4-46.17,40.68-111.85,80.34
				c-38.64,23.33-76.58,41.94-112.77,55.29C825.03,1269.89,782.14,1278.41,743.05,1278.41z"/>
			<path d="M543.96,1036.99c-0.99,0-1.99-0.21-2.92-0.64c-2.46-1.13-4.04-3.57-4.08-6.28c-0.03-2.3-2.98-231.29-23.99-383.52
				c-0.06-0.42-0.08-0.84-0.06-1.26c0.42-9.68,0.55-21.28,0.69-33.56c0.63-56.22,1.49-133.22,28.93-197.85
				c15.25-35.92,37.33-63.95,65.61-83.31c32.93-22.54,75.15-33.97,125.49-33.97c60.02,0,109.06,19.97,145.76,59.34
				c19.86,21.31,36.13,48.42,48.36,80.58c9.71,25.53,16.91,54.29,21.4,85.5c7.45,51.73,4.99,92.21,4.76,95.72l-5.78,325.79
				c-0.07,3.87-3.23,6.98-7.12,6.88c-3.87-0.07-6.94-3.26-6.88-7.12l5.78-325.97c0-0.12,0.01-0.25,0.02-0.37
				c0.03-0.41,2.79-41.67-4.68-93.25c-12.37-85.44-42.79-133.21-66.14-158.25c-33.94-36.4-79.53-54.86-135.49-54.86
				c-47.47,0-87.03,10.61-117.58,31.53c-26.04,17.83-46.44,43.81-60.63,77.23c-26.37,62.08-27.21,137.48-27.82,192.53
				c-0.14,12.13-0.26,23.6-0.67,33.38c17.87,130.01,22.7,314.92,23.77,369.15c9.93-9.45,25.25-25.01,40.98-44.73
				c24.27-30.43,54.53-77.33,60.89-127.91c0.48-3.84,3.98-6.56,7.82-6.07c3.84,0.48,6.55,3.98,6.07,7.82
				c-6.78,53.9-38.56,103.23-64.02,135.12c-27.42,34.34-52.91,55.82-53.98,56.71C547.17,1036.43,545.57,1036.99,543.96,1036.99z"/>
			<path d="M543.96,1036.99c-0.99,0-1.99-0.21-2.92-0.64c-2.46-1.13-4.04-3.57-4.08-6.28c-0.03-2.3-2.98-231.29-23.99-383.52
				c-0.06-0.42-0.08-0.84-0.06-1.26c0.42-9.68,0.55-21.28,0.69-33.56c0.63-56.22,1.49-133.22,28.93-197.85
				c15.25-35.92,37.33-63.95,65.61-83.31c32.93-22.54,75.15-33.97,125.49-33.97c60.02,0,109.06,19.97,145.76,59.34
				c19.86,21.31,36.13,48.42,48.36,80.58c9.71,25.53,16.91,54.29,21.4,85.5c7.45,51.73,4.99,92.21,4.76,95.72l-5.78,325.79
				c-0.07,3.87-3.23,6.98-7.12,6.88c-3.87-0.07-6.94-3.26-6.88-7.12l5.78-325.97c0-0.12,0.01-0.25,0.02-0.37
				c0.03-0.41,2.79-41.67-4.68-93.25c-12.37-85.44-42.79-133.21-66.14-158.25c-33.94-36.4-79.53-54.86-135.49-54.86
				c-47.47,0-87.03,10.61-117.58,31.53c-26.04,17.83-46.44,43.81-60.63,77.23c-26.37,62.08-27.21,137.48-27.82,192.53
				c-0.14,12.13-0.26,23.6-0.67,33.38c17.87,130.01,22.7,314.92,23.77,369.15c9.93-9.45,25.25-25.01,40.98-44.73
				c24.27-30.43,54.53-77.33,60.89-127.91c0.48-3.84,3.98-6.56,7.82-6.07c3.84,0.48,6.55,3.98,6.07,7.82
				c-6.78,53.9-38.56,103.23-64.02,135.12c-27.42,34.34-52.91,55.82-53.98,56.71C547.17,1036.43,545.57,1036.99,543.96,1036.99z"/>
			<path d="M732.44,745.46c-0.15,0-0.3-0.01-0.45-0.02c-1.38-0.13-2.64-0.82-3.49-1.91l-6.53-8.39l-9.31,3.77
				c-2.56,1.04-5.47-0.2-6.51-2.76s0.2-5.47,2.76-6.51l12.81-5.18c2.07-0.84,4.45-0.2,5.82,1.56l5.57,7.15l7.34-6.53
				c1.38-1.23,3.33-1.6,5.07-0.95l13.83,5.14c2.59,0.96,3.91,3.84,2.94,6.43s-3.84,3.91-6.43,2.94l-11.01-4.1l-9.08,8.08
				C734.85,745.01,733.66,745.46,732.44,745.46z"/>
			<path d="M720.81,1008.04c-55.49,0-99.37-8.73-132.31-19.41c-3.68-1.19-5.69-5.14-4.5-8.82s5.14-5.69,8.82-4.5
				c69.77,22.63,190.51,36.1,369.54-28.17c3.64-1.31,7.65,0.58,8.95,4.22s-0.58,7.65-4.22,8.95
				C868.11,995.86,786.36,1008.04,720.81,1008.04z"/>
		</g>
	</g>
	<path d="M727.5,1254.94c-71.2,0-140.27-13.95-205.31-41.45c-62.81-26.57-119.21-64.59-167.65-113.03
		c-48.44-48.44-86.46-104.84-113.03-167.65c-27.51-65.03-41.45-134.11-41.45-205.31s13.95-140.27,41.45-205.31
		c26.57-62.81,64.59-119.21,113.03-167.65c48.44-48.44,104.84-86.46,167.65-113.03c65.03-27.51,134.11-41.45,205.31-41.45
		s140.27,13.95,205.31,41.45c62.81,26.57,119.21,64.59,167.65,113.03c48.44,48.44,86.46,104.84,113.03,167.65
		c27.51,65.03,41.45,134.11,41.45,205.31s-13.95,140.27-41.45,205.31c-26.57,62.81-64.59,119.21-113.03,167.65
		c-48.44,48.44-104.84,86.46-167.65,113.03C867.77,1240.99,798.7,1254.94,727.5,1254.94z M727.5,220.06
		c-68.51,0-134.96,13.42-197.51,39.87c-60.42,25.56-114.69,62.15-161.3,108.75s-83.19,100.87-108.75,161.3
		c-26.46,62.55-39.87,129.01-39.87,197.51s13.42,134.96,39.87,197.51c25.56,60.42,62.15,114.69,108.75,161.3
		s100.87,83.2,161.3,108.75c62.55,26.46,129.01,39.87,197.51,39.87s134.96-13.42,197.51-39.87
		c60.42-25.56,114.69-62.15,161.3-108.75s83.19-100.87,108.75-161.3c26.46-62.55,39.87-129.01,39.87-197.51
		s-13.42-134.96-39.87-197.51c-25.56-60.42-62.15-114.69-108.75-161.3s-100.87-83.2-161.3-108.75
		C862.46,233.48,796.01,220.06,727.5,220.06z"/>
</g>
</svg>
