<?xml version="1.0" encoding="utf-8"?>
<!-- Generator: Adobe Illustrator 24.0.3, SVG Export Plug-In . SVG Version: 6.00 Build 0)  -->
<svg version="1.0" id="Layer_1" xmlns="http://www.w3.org/2000/svg" xmlns:xlink="http://www.w3.org/1999/xlink" x="0px" y="0px"
	 viewBox="0 0 1455 1455" enable-background="new 0 0 1455 1455" xml:space="preserve">
<g>
	<g>
		<defs>
			<circle id="SVGID_11_" cx="727.5" cy="727.5" r="517.44"/>
		</defs>
		<clipPath id="SVGID_2_">
			<use xlink:href="#SVGID_11_"  overflow="visible"/>
		</clipPath>
		<g clip-path="url(#SVGID_2_)">
			<path d="M534.96,710.22h-18.73c-10.39,0-20.59-8.83-28.72-24.88c-6.61-13.03-10.71-28.55-10.71-40.5c0-7.58,0-20.25,3.98-31.66
				c5.37-15.39,16.35-23.52,31.75-23.52c22.57,0,43.13,20.74,43.13,43.51c0,3.87-3.13,7-7,7s-7-3.13-7-7
				c0-15.17-14.16-29.51-29.13-29.51c-9.4,0-15.12,4.36-18.53,14.13c-3.2,9.17-3.2,20.36-3.2,27.04c0,20.65,15.21,51.38,25.43,51.38
				h18.73c3.87,0,7,3.13,7,7S538.83,710.22,534.96,710.22z"/>
			<path d="M909.1,710.22h-18.73c-3.87,0-7-3.13-7-7s3.13-7,7-7h18.73c10.22,0,25.43-30.73,25.43-51.37c0-6.69,0-17.88-3.2-27.05
				c-3.41-9.77-9.12-14.13-18.53-14.13c-14.97,0-29.13,14.34-29.13,29.51c0,3.87-3.13,7-7,7s-7-3.13-7-7
				c0-22.77,20.56-43.51,43.13-43.51c15.4,0,26.38,8.13,31.75,23.52c3.98,11.41,3.98,24.08,3.98,31.65c0,11.95-4.1,27.47-10.71,40.5
				C929.68,701.39,919.49,710.22,909.1,710.22z"/>
			<path d="M597.58,550.08c-1.47,0-2.92-0.64-3.91-1.88c-1.73-2.16-1.38-5.3,0.78-7.03c1.3-1.04,32.44-25.42,77.53-15.4
				c2.7,0.6,4.4,3.27,3.8,5.97c-0.6,2.7-3.27,4.39-5.97,3.8c-40.47-8.99-68.83,13.22-69.11,13.45
				C599.78,549.72,598.67,550.08,597.58,550.08z"/>
			<path d="M706.56,691.31c-1.8,0-3.53-0.97-4.43-2.67c-1.29-2.44-0.35-5.47,2.09-6.76c5.8-3.06,11.78-7.46,12.56-9.22
				c1.06-2.47,0.66-13.44-0.37-22.14c-0.33-2.74,1.63-5.23,4.38-5.55c2.74-0.32,5.23,1.63,5.55,4.38
				c0.58,4.85,2.25,21.14-0.37,27.25c-2.63,6.13-13.74,12.36-17.08,14.12C708.15,691.12,707.35,691.31,706.56,691.31z"/>
			<path d="M713.21,760.83c-30.11,0-49.39-21.7-50.19-22.63c-1.82-2.08-1.6-5.24,0.48-7.05c2.08-1.81,5.23-1.6,7.05,0.47l0,0
				c0.17,0.19,17.21,19.21,42.67,19.21c22.52,0,32.89-2.86,32.99-2.89c2.65-0.75,5.42,0.78,6.18,3.43c0.76,2.65-0.76,5.41-3.4,6.18
				C748.52,757.68,737.4,760.83,713.21,760.83z"/>
			<ellipse cx="637.26" cy="599.75" rx="10.58" ry="15.21"/>
			<ellipse cx="782" cy="599.75" rx="10.58" ry="15.21"/>
			<path d="M714.95,1300.64l-318.81-64.45l-80.05-126.98l1.01-3.12c2.01-6.22,20.08-61.22,34.62-76.7
				c43.5-46.32,217.34-115.19,224.72-118.1c3.6-1.42,7.66,0.35,9.08,3.94c1.42,3.6-0.35,7.66-3.94,9.08
				c-1.78,0.7-178.28,70.62-219.65,114.66c-9.88,10.52-24.47,50.29-30.49,68.32l73.35,116.35l309.22,62.51l405.37-138.33
				c-11.26-22.69-47.12-93.11-67.74-112.52c-37.12-34.93-184.17-95.27-185.65-95.87c-3.58-1.46-5.29-5.55-3.83-9.13
				c1.46-3.58,5.55-5.29,9.13-3.83c6.15,2.51,150.94,61.94,189.94,98.63c26.45,24.89,72.31,119.71,74.25,123.73l3.43,7.11
				L714.95,1300.64z"/>
			<path d="M809.76,576.98c-0.85,0-1.72-0.16-2.56-0.49c-37.91-14.91-89.45-42.01-119.75-86.42c-18.56-27.21-20.35-48.1-20.42-48.98
				c-0.3-3.85,2.59-7.22,6.44-7.51c3.85-0.29,7.2,2.58,7.51,6.42c0.03,0.38,1.88,18.91,18.65,43.09
				c15.68,22.61,47.96,54.91,112.69,80.38c3.6,1.42,5.37,5.48,3.95,9.08C815.19,575.3,812.55,576.98,809.76,576.98z"/>
			<path d="M492.01,606.75c-2.6,0-5.1-1.45-6.3-3.95c-0.92-1.9-22.51-47.46-22.51-123.78c0-27.13,0-64.28,14.19-95.21
				c16.83-36.67,49.78-55.67,97.97-56.49c41.27-47.73,116.3-52.96,147.04-52.96c43.56,0,81.22,6.59,111.92,19.59
				c28.65,12.13,52.15,30.2,69.86,53.71c29.84,39.62,44.34,95.47,44.34,170.73c0,16.7-4.83,64.82-5.04,66.86
				c-0.2,1.95-1.2,3.73-2.77,4.9c-1.57,1.17-3.56,1.64-5.48,1.28c-68.12-12.75-117.46-35.09-146.63-66.4
				c-22.65-24.32-24.13-45.23-24.18-46.11c-0.23-3.86,2.72-7.17,6.58-7.4c3.83-0.21,7.14,2.69,7.4,6.53
				c0.04,0.46,1.73,17.87,21.46,38.5c32.08,33.56,87.2,50.86,130.44,59.65c1.39-14.51,4.22-45.66,4.22-57.81
				c0-72.11-13.58-125.2-41.53-162.31c-16.2-21.52-37.78-38.09-64.13-49.24c-28.97-12.26-64.79-18.48-106.47-18.48
				c-29.27,0-101.35,4.91-138.32,50.35c-1.33,1.63-3.32,2.58-5.43,2.58c-44.64,0-73.6,15.82-88.53,48.36
				c-12.92,28.15-12.92,63.54-12.92,89.37c0,72.87,20.91,117.25,21.12,117.69c1.67,3.48,0.21,7.66-3.27,9.34
				C494.07,606.53,493.03,606.75,492.01,606.75z"/>
			<path d="M546.05,593.54c-3.87,0-7-3.13-7-7c0-40.69,9.75-51.19,18.35-60.46c2.29-2.47,4.45-4.8,6.27-7.65
				c5.82-9.14,16.95-19.25,28.73-29.95c16.87-15.33,37.86-34.41,37.86-47.92c0-3.87,3.13-7,7-7s7,3.13,7,7
				c0,19.71-21.58,39.32-42.45,58.28c-11.07,10.06-21.52,19.55-26.34,27.11c-2.5,3.92-5.2,6.84-7.82,9.65
				c-7.51,8.1-14.61,15.74-14.61,50.94C553.05,590.41,549.91,593.54,546.05,593.54z"/>
			<path d="M711.63,849.63l-0.84-0.11c-49.99-6.39-96.68-25.89-131.49-54.91c-32.99-27.51-51.92-60.83-51.92-91.4h14
				c0,26.41,17.09,55.8,46.88,80.64c32.59,27.17,76.4,45.51,123.46,51.67c102.71-11.89,171.63-77.91,171.63-132.31h14
				c0,32.02-19.41,66.13-53.26,93.58c-34.99,28.38-81.74,47.11-131.63,52.74L711.63,849.63z"/>
			<path d="M711.68,842.58c-33.71-4.31-64.1-14.4-89.81-28c19.94,21.98,72.34,59.99,196.39,59.99v-68.01
				C789.05,824.7,752.53,837.98,711.68,842.58z"/>
			<path d="M702.37,1019.77c-3.44,0-6.44-2.54-6.92-6.04l-9.35-67.44c-34.33-9.9-65.04-48.64-78.38-67.59l-28.99,60.66l57.38,61.87
				l30.9-50.51c2.02-3.3,6.33-4.34,9.62-2.32c3.3,2.02,4.34,6.33,2.32,9.62l-35.72,58.39c-1.14,1.87-3.1,3.09-5.28,3.31
				c-2.18,0.21-4.34-0.6-5.83-2.21l-66.89-72.13c-1.95-2.1-2.42-5.19-1.18-7.78l36.34-76.06c1.11-2.31,3.39-3.84,5.95-3.97
				c2.57-0.15,4.99,1.14,6.33,3.33c0.1,0.16,10.25,16.58,25.55,33.8c19.67,22.15,38.88,35.66,55.55,39.06
				c2.91,0.59,5.13,2.96,5.53,5.9l10,72.13c0.53,3.83-2.14,7.36-5.97,7.89C703.01,1019.74,702.69,1019.77,702.37,1019.77z"/>
			<path d="M787.49,1022.76c-0.23,0-0.46-0.01-0.69-0.03c-2.18-0.22-4.13-1.44-5.28-3.31l-35.72-58.39
				c-2.02-3.3-0.98-7.61,2.32-9.62c3.3-2.02,7.61-0.98,9.62,2.32l30.9,50.51l57.38-61.87l-28.99-60.66
				c-13.36,18.99-44.19,57.86-78.61,67.66l-12.17,64.7c-0.71,3.8-4.38,6.3-8.17,5.59c-3.8-0.71-6.3-4.37-5.59-8.17l13-69.13
				c0.53-2.8,2.69-5,5.48-5.56c16.67-3.4,35.88-16.91,55.55-39.06c15.3-17.23,25.45-33.64,25.55-33.81
				c1.34-2.18,3.78-3.46,6.33-3.32c2.56,0.14,4.84,1.66,5.95,3.97l36.34,76.06c1.24,2.59,0.77,5.67-1.18,7.78l-66.89,72.13
				C791.29,1021.96,789.43,1022.76,787.49,1022.76z"/>
			<g>
				<path d="M732.37,950.63c-3.26,0-6.17-2.29-6.85-5.6c-0.77-3.79,1.67-7.49,5.46-8.26c37.78-7.71,74.43-62.48,80.29-71.59v-46.43
					c-29.44,16.2-63.34,26.78-98.8,30.78l-0.84,0.09l-0.84-0.11c-34.23-4.37-67.03-14.9-95.64-30.61v45.84
					c9.01,13.55,43.27,61.8,78.62,69.02c3.79,0.77,6.23,4.47,5.46,8.26c-0.77,3.79-4.47,6.24-8.26,5.46
					c-18.23-3.72-37.67-16.35-57.77-37.54c-15.42-16.25-26.76-32.88-30.91-39.28l-1.13-1.74v-74.76l10.68,6.61
					c29.07,17.99,63.6,30,99.89,34.75c37.48-4.34,73.02-16.41,102.84-34.92l10.69-6.64v104.93l-8.23-17.21
					c-13.96,19.84-46.98,61.39-83.26,68.79C733.3,950.59,732.83,950.63,732.37,950.63z"/>
			</g>
			<path d="M702.38,1256.53c-3.87,0-7-3.13-7-7v-217.76c0-3.87,3.13-7,7-7s7,3.13,7,7v217.76
				C709.38,1253.4,706.24,1256.53,702.38,1256.53z"/>
			<ellipse cx="726.47" cy="1055.96" rx="10.58" ry="15.21"/>
			<ellipse cx="726.47" cy="1135.96" rx="10.58" ry="15.21"/>
			<ellipse cx="726.47" cy="1215.96" rx="10.58" ry="15.21"/>
		</g>
	</g>
	<path d="M727.5,1254.94c-71.2,0-140.27-13.95-205.31-41.45c-62.81-26.57-119.21-64.59-167.65-113.03
		c-48.44-48.44-86.46-104.84-113.03-167.65c-27.51-65.03-41.45-134.11-41.45-205.31s13.95-140.27,41.45-205.31
		c26.57-62.81,64.59-119.21,113.03-167.65c48.44-48.44,104.84-86.46,167.65-113.03c65.03-27.51,134.11-41.45,205.31-41.45
		s140.27,13.95,205.31,41.45c62.81,26.57,119.21,64.59,167.65,113.03c48.44,48.44,86.46,104.84,113.03,167.65
		c27.51,65.03,41.45,134.11,41.45,205.31s-13.95,140.27-41.45,205.31c-26.57,62.81-64.59,119.21-113.03,167.65
		c-48.44,48.44-104.84,86.46-167.65,113.03C867.77,1240.99,798.7,1254.94,727.5,1254.94z M727.5,220.06
		c-68.51,0-134.96,13.42-197.51,39.87c-60.42,25.56-114.69,62.15-161.3,108.75s-83.19,100.87-108.75,161.3
		c-26.46,62.55-39.87,129.01-39.87,197.51s13.42,134.96,39.87,197.51c25.56,60.42,62.15,114.69,108.75,161.3
		s100.87,83.2,161.3,108.75c62.55,26.46,129.01,39.87,197.51,39.87s134.96-13.42,197.51-39.87
		c60.42-25.56,114.69-62.15,161.3-108.75s83.19-100.87,108.75-161.3c26.46-62.55,39.87-129.01,39.87-197.51
		s-13.42-134.96-39.87-197.51c-25.56-60.42-62.15-114.69-108.75-161.3s-100.87-83.2-161.3-108.75
		C862.46,233.48,796.01,220.06,727.5,220.06z"/>
</g>
</svg>
