<?xml version="1.0" encoding="utf-8"?>
<!-- Generator: Adobe Illustrator 24.0.3, SVG Export Plug-In . SVG Version: 6.00 Build 0)  -->
<svg version="1.0" id="Layer_1" xmlns="http://www.w3.org/2000/svg" xmlns:xlink="http://www.w3.org/1999/xlink" x="0px" y="0px"
	 viewBox="0 0 1455 1455" enable-background="new 0 0 1455 1455" xml:space="preserve">
<g>
	<g>
		<defs>
			<circle id="SVGID_15_" cx="727.5" cy="727.5" r="517.44"/>
		</defs>
		<clipPath id="SVGID_2_">
			<use xlink:href="#SVGID_15_"  overflow="visible"/>
		</clipPath>
		<g clip-path="url(#SVGID_2_)">
			<path d="M534.96,762.59h-18.73c-10.39,0-20.59-8.83-28.72-24.88c-6.61-13.03-10.71-28.55-10.71-40.5c0-7.58,0-20.25,3.98-31.66
				c5.37-15.39,16.35-23.52,31.75-23.52c22.57,0,43.13,20.74,43.13,43.51c0,3.87-3.13,7-7,7s-7-3.13-7-7
				c0-15.17-14.16-29.51-29.13-29.51c-9.4,0-15.12,4.36-18.53,14.13c-3.2,9.17-3.2,20.36-3.2,27.04c0,20.65,15.21,51.38,25.43,51.38
				h18.73c3.87,0,7,3.13,7,7S538.83,762.59,534.96,762.59z"/>
			<path d="M909.1,762.59h-18.73c-3.87,0-7-3.13-7-7s3.13-7,7-7h18.73c10.22,0,25.43-30.73,25.43-51.37c0-6.69,0-17.87-3.2-27.04
				c-3.41-9.78-9.12-14.13-18.53-14.13c-14.97,0-29.13,14.34-29.13,29.51c0,3.87-3.13,7-7,7s-7-3.13-7-7
				c0-22.77,20.56-43.51,43.13-43.51c15.4,0,26.38,8.13,31.75,23.52c3.98,11.41,3.98,24.08,3.98,31.65c0,11.95-4.1,27.46-10.71,40.5
				C929.69,753.75,919.49,762.59,909.1,762.59z"/>
			<path d="M597.58,612.44c-1.47,0-2.93-0.64-3.91-1.88c-1.72-2.16-1.37-5.29,0.78-7.02c1.3-1.04,32.43-25.42,77.53-15.4
				c2.7,0.6,4.39,3.27,3.8,5.97c-0.6,2.7-3.27,4.39-5.97,3.8c-40.26-8.95-68.84,13.23-69.12,13.46
				C599.77,612.09,598.67,612.44,597.58,612.44z"/>
			<path d="M818.66,612.45c-1.09,0-2.19-0.36-3.11-1.09l0,0c-0.28-0.22-28.86-22.4-69.12-13.46c-2.7,0.6-5.37-1.1-5.97-3.8
				c-0.6-2.7,1.1-5.37,3.8-5.97c45.09-10.02,76.23,14.36,77.53,15.4c2.16,1.72,2.51,4.87,0.78,7.03
				C821.58,611.81,820.12,612.45,818.66,612.45z"/>
			<path d="M706.56,734.64c-1.99,0-3.87-1.2-4.65-3.16c-1.02-2.57,0.24-5.47,2.8-6.49c5.37-2.13,11.17-5.26,12.34-6.65
				c0.66-1.71,0.4-8.83-0.61-15.25c-0.43-2.73,1.43-5.29,4.16-5.72c2.73-0.42,5.29,1.43,5.72,4.16c0.77,4.89,2.26,16.8-0.6,21.82
				c-2.61,4.58-11.97,8.82-17.32,10.94C707.8,734.53,707.17,734.64,706.56,734.64z"/>
			<path d="M713.21,805.2c-30.08,0-52.33-24.67-53.27-25.72c-1.83-2.07-1.65-5.23,0.42-7.06c2.06-1.83,5.22-1.65,7.05,0.41l0,0
				c0.2,0.22,20.27,22.37,45.79,22.37c21.51,0,41.91-17.8,42.12-17.98c2.07-1.83,5.23-1.63,7.06,0.43c1.83,2.07,1.64,5.22-0.42,7.05
				C761.02,785.55,738.57,805.2,713.21,805.2z"/>
			<ellipse cx="637.26" cy="652.12" rx="10.58" ry="15.21"/>
			<ellipse cx="782" cy="652.12" rx="10.58" ry="15.21"/>
			<path d="M714.95,1353.01l-318.8-64.45l-80.05-126.98l1.01-3.12c2.01-6.22,20.08-61.22,34.62-76.7
				c43.5-46.32,217.34-115.19,224.72-118.1c3.6-1.42,7.66,0.35,9.08,3.94s-0.35,7.66-3.94,9.08
				c-1.78,0.7-178.28,70.62-219.65,114.66c-9.88,10.52-24.47,50.29-30.49,68.32l73.35,116.35l309.22,62.51l405.37-138.33
				c-11.26-22.69-47.12-93.11-67.74-112.52c-37.13-34.93-184.17-95.27-185.65-95.87c-3.58-1.46-5.29-5.55-3.83-9.13
				s5.55-5.29,9.13-3.83c6.14,2.51,150.94,61.94,189.94,98.63c26.45,24.89,72.31,119.71,74.25,123.73l3.43,7.11L714.95,1353.01z"/>
			<path d="M462.9,667.56c-15.66,0-31.51-6.21-43.5-17.05c-12.61-11.4-19.55-26.31-19.55-42c0-23.78,14.06-44.76,35.21-54.04
				c-4.11-6.94-6.31-14.88-6.31-23.11c0-15.93,8.41-30.55,21.64-38.71c-14.08-21.69-15.63-52.19-3.54-80.32
				c13.94-32.41,43.3-53.75,72.29-53.75c0.56,0,1.11,0.01,1.67,0.02c0.75-4.89,2.12-9.66,4.1-14.26
				c10.91-25.37,37.56-39.37,64.06-34.69c10.65-38.16,45.68-65.16,85.92-65.16c12.7,0,25.35,2.75,36.88,7.98
				c22.51-19.7,51.17-30.49,81.23-30.49c25.11,0,49.28,7.5,69.89,21.68c19.05,13.11,33.91,31.07,43.15,52.1
				c45.02,9.12,77.29,45.17,77.29,87.02c0,12.4-2.88,24.69-8.39,35.96c24.78,12.69,41.5,42.76,41.5,76.2
				c0,17.67-4.61,34.76-13.07,48.87c12.39,10.32,19.61,25.53,19.61,41.92c0,28.81-22.42,52.48-50.73,54.49l-10.14,15.67
				c-2.1,3.25-6.43,4.18-9.68,2.08c-3.25-2.1-4.18-6.43-2.08-9.68l12.12-18.73c1.29-1.99,3.5-3.2,5.88-3.2
				c22.4,0,40.62-18.22,40.62-40.62c0-13.97-7.05-26.79-18.87-34.3c-1.63-1.03-2.76-2.7-3.12-4.59c-0.36-1.89,0.07-3.85,1.2-5.42
				c9.19-12.72,14.25-29.23,14.25-46.48c0-30.87-16.3-58.09-39.63-66.2c-2-0.7-3.58-2.26-4.29-4.26c-0.71-2-0.48-4.21,0.62-6.01
				c6.67-10.89,10.2-23.23,10.2-35.68c0-36.16-29.19-67.24-69.42-73.92c-2.41-0.4-4.43-2.03-5.35-4.29
				c-16.78-41.67-56.65-68.6-101.57-68.6c-28.1,0-54.82,10.64-75.22,29.95c-2.17,2.06-5.41,2.5-8.06,1.12
				c-10.84-5.68-22.56-8.55-34.83-8.55c-36,0-67.06,25.62-73.85,60.93c-0.38,1.96-1.57,3.66-3.28,4.68
				c-1.71,1.02-3.77,1.27-5.67,0.68c-21.9-6.79-45.25,3.99-54.33,25.09c-2.26,5.25-3.48,10.81-3.63,16.52
				c-0.05,2.02-0.97,3.91-2.53,5.2c-1.55,1.29-3.58,1.84-5.58,1.53c-25.53-4.09-53.42,14.73-66.33,44.74
				c-11.21,26.07-8.55,55.31,6.63,72.76c1.51,1.74,2.07,4.11,1.49,6.35c-0.58,2.23-2.22,4.04-4.39,4.83
				c-12.38,4.5-20.71,16.38-20.71,29.56c0,8.15,3.11,15.88,8.76,21.76c1.73,1.8,2.37,4.4,1.67,6.8c-0.7,2.4-2.62,4.25-5.05,4.85
				c-20.18,4.95-34.28,22.94-34.28,43.74c0,24,22.92,45.05,49.05,45.05c3.87,0,7,3.13,7,7S466.77,667.56,462.9,667.56z"/>
			<path d="M510.11,633.56c-2.6,0-5.1-1.46-6.31-3.95c-1.68-3.48-0.23-7.67,3.25-9.35c10.31-4.99,16.97-16.33,16.97-28.89
				c0-5.71-1.38-11.3-4-16.18c-1.07-1.98-1.11-4.36-0.12-6.38c0.99-2.02,2.89-3.45,5.11-3.83c19.21-3.28,37.63-20.75,46.94-44.5
				c5.22-13.32,7.28-27.48,5.97-40.96c-0.21-2.15,0.58-4.28,2.16-5.76s3.73-2.16,5.87-1.83c14.93,2.29,30.08-5.2,38.58-19.08
				c1.1-1.79,2.94-2.99,5.02-3.28c2.08-0.28,4.18,0.38,5.71,1.81c12.2,11.33,27.68,17.58,43.6,17.58c6.36,0,12.7-0.99,18.84-2.96
				c3.01-0.96,6.3,0.22,8.01,2.87c18.59,28.82,48.79,46.03,80.77,46.03c12.78,0,25.23-2.66,37-7.9c2.06-0.92,4.44-0.79,6.38,0.36
				c14.09,8.25,30.69,11.9,47.27,10.3c2.34-0.22,4.65,0.74,6.12,2.58c1.48,1.83,1.93,4.29,1.22,6.53c-2.86,8.91-4.31,18.4-4.31,28.2
				c0,28.2,12,53.23,30.56,63.77c3.36,1.91,4.54,6.18,2.63,9.54c-1.91,3.36-6.18,4.54-9.54,2.63
				c-22.87-12.98-37.65-42.79-37.65-75.94c0-7.84,0.81-15.52,2.42-22.94c-14.96-0.14-29.62-3.87-42.68-10.84
				c-12.6,5.12-25.85,7.72-39.43,7.72c-35.12,0-68.26-17.89-89.62-48.12c-5.91,1.45-11.94,2.18-18,2.18
				c-16.9,0-33.35-5.71-47.08-16.22c-10.04,12.15-24.45,19.29-39.48,19.59c0.16,13.13-2.33,26.55-7.31,39.26
				c-9.92,25.31-28.3,44.17-49.22,51.09c1.49,4.71,2.26,9.68,2.26,14.69c0,17.89-9.76,34.18-24.87,41.49
				C512.17,633.33,511.13,633.56,510.11,633.56z"/>
			<path d="M711.69,886.95c-38.59,0-76.22-12.37-108.81-35.78c-31.53-22.65-57.23-54.71-74.3-92.71l12.77-5.74
				c33.33,74.16,98.6,120.23,170.35,120.23c35.76,0,70.67-11.54,100.93-33.36c29.6-21.35,53.72-51.63,69.73-87.58l12.79,5.7
				c-17.02,38.2-42.72,70.44-74.33,93.23C788.14,874.5,750.41,886.95,711.69,886.95z"/>
			<path d="M711.69,879.95c-34.69,0-67.31-10.29-95.71-28.37l-4.96,0.13c0,0,32.73,75.23,207.25,75.23v-80.6l-3.18,0.08
				C784.94,867.69,749.55,879.95,711.69,879.95z"/>
			<path d="M711.69,886.95c-38.59,0-76.22-12.37-108.81-35.78c-31.53-22.65-57.23-54.71-74.3-92.71l12.77-5.74
				c33.33,74.16,98.6,120.23,170.35,120.23c35.76,0,70.67-11.54,100.93-33.36c29.6-21.35,53.72-51.63,69.73-87.58l12.79,5.7
				c-17.02,38.2-42.72,70.44-74.33,93.23C788.14,874.5,750.41,886.95,711.69,886.95z"/>
			<g>
				<path d="M732.37,1003c-3.26,0-6.17-2.29-6.85-5.6c-0.77-3.79,1.67-7.49,5.46-8.26c37.78-7.71,74.42-62.47,80.29-71.58v-60.15
					c-30.38,19.36-64.61,29.54-99.58,29.54c-33.8,0-66.92-9.52-96.52-27.63v57.8c9.01,13.55,43.27,61.8,78.62,69.02
					c3.79,0.77,6.23,4.47,5.46,8.26c-0.77,3.79-4.46,6.23-8.26,5.46c-18.23-3.72-37.67-16.35-57.77-37.54
					c-15.42-16.25-26.76-32.88-30.91-39.28l-1.13-1.74v-81.96h9.22l1.82,1.28c29.92,21.15,64.32,32.33,99.48,32.33
					c35.16,0,69.55-11.18,99.48-32.33l1.82-1.28h12.29v112l-8.24-17.27c-13.96,19.84-46.98,61.38-83.25,68.78
					C733.3,1002.96,732.83,1003,732.37,1003z"/>
			</g>
			<path d="M718.76,1100.06c-5.25,0-11.83-0.31-20.14-0.83c-3.14-0.2-5.86-0.36-7.06-0.36c-1.4,0-2.76-0.42-3.92-1.2
				c-0.93-0.63-22.84-16-20.63-65.07c0.17-3.74,3.25-6.68,6.99-6.68h71.33c3.24,0,6.06,2.22,6.81,5.37
				c0.33,1.38,7.83,34.17-14.61,63.81C734.8,1098.72,729.7,1100.06,718.76,1100.06z M695.58,1086.14h0.01H695.58z M694.27,1084.96
				c1.42,0.07,3.16,0.18,5.22,0.31c5.77,0.36,22.68,1.41,27.72,0.26c12.67-17.51,12.89-36.54,12.08-45.6h-58.42
				c0.06,17.47,3.65,28.76,6.85,35.36C690.19,1080.39,692.76,1083.45,694.27,1084.96z M727.96,1085.3L727.96,1085.3L727.96,1085.3z"
				/>
			<path d="M714.48,1352.78c-0.46,0-0.93-0.05-1.39-0.14l-50.8-10.27c-3.56-0.72-5.98-4.05-5.57-7.66l27.88-243.63
				c0.44-3.84,3.9-6.59,7.75-6.16c3.84,0.44,6.6,3.91,6.16,7.75l-27.15,237.25l42.64,8.62l42.59-14.54l-31.59-232.19
				c-0.52-3.83,2.16-7.36,5.99-7.88c3.83-0.52,7.36,2.16,7.88,5.99l32.36,237.9c0.45,3.32-1.51,6.49-4.68,7.57l-49.84,17.01
				C716.01,1352.65,715.25,1352.78,714.48,1352.78z"/>
			<path d="M647.85,1318.2c-2.29,0-4.52-1.12-5.87-3.17c-21.54-32.99-91.15-302.81-94.1-314.28c-0.96-3.74,1.29-7.56,5.03-8.52
				c3.74-0.96,7.56,1.29,8.52,5.03c19.95,77.51,75.42,284.33,92.26,310.12c2.11,3.24,1.2,7.57-2.03,9.69
				C650.48,1317.83,649.16,1318.2,647.85,1318.2z"/>
			<path d="M784.65,1311.2c-1.31,0-2.64-0.37-3.82-1.14c-3.24-2.11-4.15-6.45-2.03-9.69c16.03-24.54,68.88-221.6,87.89-295.46
				c0.96-3.74,4.78-6,8.52-5.03c3.74,0.96,6,4.78,5.03,8.52c-2.81,10.93-69.17,268.15-89.73,299.63
				C789.18,1310.08,786.94,1311.2,784.65,1311.2z"/>
			<path d="M637.26,1072.13c-1.94,0-3.8-0.8-5.13-2.24l-66.89-72.13c-1.95-2.1-2.42-5.19-1.18-7.78l36.34-76.06
				c1.11-2.31,3.39-3.84,5.95-3.97c2.57-0.15,4.99,1.14,6.33,3.33c0.1,0.16,10.25,16.58,25.55,33.8
				c19.67,22.15,38.88,35.66,55.55,39.06c2.91,0.59,5.13,2.96,5.53,5.9l5.53,39.92c0.53,3.83-2.14,7.36-5.97,7.89
				c-3.83,0.53-7.36-2.14-7.89-5.97l-4.88-35.23c-34.33-9.9-65.04-48.64-78.38-67.59l-28.99,60.66l57.38,61.87l30.9-50.51
				c2.02-3.3,6.33-4.34,9.62-2.32c3.3,2.02,4.33,6.33,2.32,9.62l-35.72,58.39c-1.14,1.87-3.1,3.09-5.28,3.31
				C637.72,1072.12,637.49,1072.13,637.26,1072.13z"/>
			<path d="M787.49,1075.13c-0.23,0-0.46-0.01-0.7-0.03c-2.18-0.22-4.13-1.44-5.28-3.31l-35.72-58.39c-2.02-3.3-0.98-7.61,2.32-9.62
				c3.3-2.02,7.61-0.98,9.62,2.32l30.9,50.51l57.38-61.87l-28.99-60.66c-13.36,18.99-44.19,57.86-78.61,67.66l-6.11,32.49
				c-0.71,3.8-4.37,6.3-8.17,5.59c-3.8-0.71-6.3-4.37-5.59-8.17l6.94-36.92c0.53-2.8,2.69-5,5.48-5.56
				c16.71-3.41,35.97-16.98,55.7-39.23c15.27-17.22,25.31-33.48,25.41-33.64c1.34-2.18,3.76-3.48,6.33-3.33
				c2.56,0.13,4.84,1.66,5.95,3.97l36.34,76.06c1.24,2.59,0.77,5.67-1.18,7.78l-66.89,72.13
				C791.29,1074.33,789.43,1075.13,787.49,1075.13z"/>
		</g>
	</g>
	<path d="M727.5,1254.94c-71.2,0-140.27-13.95-205.31-41.45c-62.81-26.57-119.21-64.59-167.65-113.03s-86.46-104.84-113.03-167.65
		c-27.51-65.03-41.45-134.11-41.45-205.31s13.95-140.27,41.45-205.31c26.57-62.81,64.59-119.21,113.03-167.65
		s104.84-86.46,167.65-113.03c65.03-27.51,134.11-41.45,205.31-41.45s140.27,13.95,205.31,41.45
		c62.81,26.57,119.21,64.59,167.65,113.03s86.46,104.84,113.03,167.65c27.51,65.03,41.45,134.11,41.45,205.31
		s-13.95,140.27-41.45,205.31c-26.57,62.81-64.59,119.21-113.03,167.65s-104.84,86.46-167.65,113.03
		C867.77,1240.99,798.7,1254.94,727.5,1254.94z M727.5,220.06c-68.51,0-134.96,13.42-197.51,39.87
		c-60.42,25.56-114.69,62.15-161.3,108.75s-83.2,100.87-108.75,161.3c-26.46,62.55-39.87,129.01-39.87,197.51
		s13.42,134.96,39.87,197.51c25.56,60.42,62.15,114.69,108.75,161.3s100.87,83.2,161.3,108.75
		c62.55,26.46,129.01,39.87,197.51,39.87s134.96-13.42,197.51-39.87c60.42-25.56,114.69-62.15,161.3-108.75
		s83.2-100.87,108.75-161.3c26.46-62.55,39.87-129.01,39.87-197.51s-13.42-134.96-39.87-197.51
		c-25.56-60.42-62.15-114.69-108.75-161.3s-100.87-83.2-161.3-108.75C862.46,233.48,796.01,220.06,727.5,220.06z"/>
</g>
</svg>
