<?xml version="1.0" encoding="utf-8"?>
<!-- Generator: Adobe Illustrator 24.0.3, SVG Export Plug-In . SVG Version: 6.00 Build 0)  -->
<svg version="1.0" id="Layer_1" xmlns="http://www.w3.org/2000/svg" xmlns:xlink="http://www.w3.org/1999/xlink" x="0px" y="0px"
	 viewBox="0 0 1455 1455" enable-background="new 0 0 1455 1455" xml:space="preserve">
<g>
	<g>
		<defs>
			<circle id="SVGID_7_" cx="727.5" cy="727.5" r="517.44"/>
		</defs>
		<clipPath id="SVGID_2_">
			<use xlink:href="#SVGID_7_"  overflow="visible"/>
		</clipPath>
		<g clip-path="url(#SVGID_2_)">
			<path d="M534.96,727.43h-18.73c-10.39,0-20.59-8.83-28.72-24.88c-6.61-13.03-10.71-28.55-10.71-40.5c0-7.58,0-20.25,3.98-31.66
				c5.37-15.39,16.35-23.52,31.75-23.52c22.57,0,43.13,20.74,43.13,43.51c0,3.87-3.13,7-7,7s-7-3.13-7-7
				c0-15.17-14.16-29.51-29.13-29.51c-9.4,0-15.12,4.36-18.53,14.13c-3.2,9.17-3.2,20.36-3.2,27.04c0,20.65,15.21,51.38,25.43,51.38
				h18.73c3.87,0,7,3.13,7,7S538.83,727.43,534.96,727.43z"/>
			<path d="M909.1,727.43h-18.73c-3.87,0-7-3.13-7-7s3.13-7,7-7h18.73c10.22,0,25.43-30.73,25.43-51.37c0-6.69,0-17.87-3.2-27.04
				c-3.41-9.78-9.12-14.14-18.53-14.14c-14.97,0-29.13,14.34-29.13,29.51c0,3.87-3.13,7-7,7s-7-3.13-7-7
				c0-22.77,20.56-43.51,43.13-43.51c15.4,0,26.38,8.13,31.75,23.52c3.98,11.41,3.98,24.08,3.98,31.65c0,11.95-4.1,27.46-10.71,40.5
				C929.69,718.6,919.49,727.43,909.1,727.43z"/>
			<path d="M596.9,559.35c-1.88,0-3.73-0.88-4.9-2.53c-1.92-2.7-1.28-6.45,1.42-8.37c1.31-0.93,32.65-22.66,73.08-8.03
				c3.12,1.13,4.73,4.57,3.6,7.68c-1.13,3.12-4.57,4.73-7.68,3.6c-34.6-12.52-61.79,6.34-62.06,6.53
				C599.31,558.99,598.1,559.35,596.9,559.35z"/>
			<path d="M815.78,559.35c-1.2,0-2.4-0.36-3.45-1.1c-1.13-0.79-27.71-18.97-62.07-6.54c-3.11,1.13-6.56-0.48-7.68-3.6
				c-1.13-3.12,0.49-6.56,3.6-7.68c40.43-14.63,71.77,7.1,73.08,8.03c2.7,1.92,3.34,5.66,1.42,8.37
				C819.51,558.47,817.66,559.35,815.78,559.35z"/>
			<path d="M706.56,699.48c-1.99,0-3.87-1.2-4.65-3.16c-1.02-2.57,0.24-5.47,2.8-6.49c5.37-2.13,11.17-5.26,12.34-6.65
				c0.66-1.71,0.4-8.83-0.61-15.25c-0.43-2.73,1.43-5.29,4.16-5.72c2.72-0.43,5.29,1.43,5.72,4.16c0.77,4.89,2.26,16.8-0.6,21.82
				c-2.61,4.58-11.97,8.82-17.32,10.94C707.8,699.37,707.17,699.48,706.56,699.48z"/>
			<path d="M713.21,770.04c-30.08,0-52.33-24.67-53.27-25.72c-1.83-2.06-1.65-5.23,0.42-7.06c2.06-1.83,5.22-1.65,7.05,0.41l0,0
				c0.2,0.22,20.27,22.36,45.79,22.36c21.51,0,41.91-17.8,42.12-17.98c2.07-1.83,5.23-1.64,7.06,0.43c1.83,2.07,1.64,5.22-0.42,7.05
				C761.02,750.39,738.57,770.04,713.21,770.04z"/>
			<ellipse cx="637.26" cy="616.96" rx="10.58" ry="15.21"/>
			<ellipse cx="782" cy="616.96" rx="10.58" ry="15.21"/>
			<path d="M714.95,1297.86l-318.8-64.45l-80.05-126.98l1.01-3.12c2.01-6.22,20.08-61.22,34.62-76.7
				c43.5-46.32,217.34-115.19,224.72-118.1c3.6-1.42,7.66,0.35,9.08,3.94c1.42,3.6-0.35,7.66-3.94,9.08
				c-1.78,0.7-178.28,70.62-219.65,114.66c-9.89,10.53-24.47,50.29-30.49,68.32l73.35,116.35l309.22,62.51l405.37-138.33
				c-11.26-22.69-47.12-93.11-67.74-112.52c-37.13-34.93-184.17-95.27-185.65-95.87c-3.58-1.46-5.29-5.55-3.83-9.13
				c1.46-3.58,5.55-5.29,9.13-3.83c6.14,2.51,150.94,61.94,189.94,98.63c26.45,24.89,72.31,119.71,74.25,123.73l3.43,7.11
				L714.95,1297.86z"/>
			<path d="M488.04,622.73c-3.23-2.22-19.34-17.15-19.34-92.6c0-27.7,0-69.56,14.03-105.82c17.05-44.06,50.05-66.89,98.13-67.88
				c15.72-18.22,37.33-31.76,64.29-40.27c22.54-7.12,48.79-10.72,78-10.72c27.44,0,51.82,5.48,73.33,10.32
				c47.04,10.57,78.12,17.56,107.29-35.01c1.14-2.06,3.24-3.4,5.59-3.58c2.34-0.18,4.62,0.83,6.07,2.69
				c39.85,51.41,33.91,98.54,26.39,158.2c-3.29,26.09-7.02,55.67-7.02,88.87c0,30.79-0.11,68.74-0.11,69.12
				c-0.01,3.86-3.14,6.98-7,6.98c-0.01,0-0.01,0-0.02,0c-3.87-0.01-6.99-3.15-6.98-7.02c0-0.38,0.11-38.31,0.11-69.07
				c0-34.09,3.79-64.12,7.13-90.62c6.95-55.13,12.09-95.89-17.46-139.47c-33.1,51.45-72.18,42.66-117.05,32.57
				c-20.8-4.68-44.37-9.97-70.26-9.97c-42.97,0-101.03,8.39-133.56,48.38c-1.33,1.63-3.32,2.58-5.43,2.58
				c-44.11,0-73.02,19.29-88.37,58.96c-13.08,33.82-13.08,74.11-13.08,100.77c0,68.1,13.54,81.24,13.67,81.36
				c-0.24-0.22-0.39-0.3-0.39-0.3L488.04,622.73z"/>
			<path d="M526.6,612.7c-3.78,0-6.89-3.01-6.99-6.81l-3.35-121.71c0-0.06,0-0.13,0-0.19c0-12.67,12.75-29.21,14.2-31.05
				c2.39-3.04,6.79-3.56,9.83-1.16c3.04,2.39,3.56,6.79,1.17,9.83l0,0c-4.63,5.89-11.14,16.68-11.2,22.31l3.35,121.6
				c0.11,3.86-2.94,7.08-6.8,7.19C526.73,612.69,526.67,612.7,526.6,612.7z"/>
			<path d="M890.44,612.7c-0.07,0-0.13,0-0.2,0c-3.86-0.11-6.91-3.33-6.8-7.19l3.35-121.6c-0.06-5.63-6.57-16.42-11.2-22.31
				c-2.39-3.04-1.86-7.44,1.17-9.83c3.04-2.39,7.43-1.87,9.83,1.17c1.45,1.84,14.2,18.39,14.2,31.05c0,0.06,0,0.13,0,0.19
				l-3.35,121.71C897.33,609.69,894.21,612.7,890.44,612.7z M893.78,483.98L893.78,483.98L893.78,483.98z"/>
			<path d="M559.02,457.55c-1.71,0-3.42-0.62-4.77-1.88c-2.82-2.63-2.99-7.05-0.36-9.88c0.5-0.54,12.46-13.28,32.14-23.1
				c26.37-13.16,54.1-14.77,80.19-4.66c3.61,1.4,5.39,5.45,4,9.06c-1.4,3.6-5.45,5.4-9.06,4c-22.49-8.72-45.52-7.4-68.46,3.93
				c-17.54,8.66-28.45,20.2-28.56,20.32C562.76,456.8,560.89,457.55,559.02,457.55z"/>
			<path d="M862.1,457.55c-1.88,0-3.75-0.75-5.12-2.23c-0.21-0.22-11.1-11.7-28.56-20.32c-22.94-11.32-45.97-12.64-68.46-3.93
				c-3.6,1.4-7.66-0.39-9.06-4c-1.4-3.6,0.39-7.66,4-9.06c26.09-10.11,53.82-8.5,80.19,4.66c19.68,9.82,31.64,22.56,32.14,23.1
				c2.63,2.83,2.47,7.26-0.36,9.89C865.52,456.93,863.81,457.55,862.1,457.55z"/>
			<path d="M695.03,425.44c-0.2,0-0.4-0.01-0.6-0.03c-3.85-0.33-6.71-3.72-6.38-7.57c1.26-14.77-17.81-28.35-18.01-28.49
				c-3.18-2.19-3.98-6.55-1.79-9.74c2.19-3.18,6.55-3.98,9.74-1.79c0.26,0.18,6.47,4.49,12.44,11.39
				c8.4,9.71,12.4,20.02,11.57,29.81C701.68,422.68,698.62,425.44,695.03,425.44z"/>
			<path d="M735.98,425.44c-3.87,0-7-3.13-7-7c0-24.78-8.25-28.05-8.34-28.08c0.3,0.11,0.49,0.12,0.49,0.12l2.54-13.77
				c1.98,0.36,19.31,4.64,19.31,41.73C742.98,422.3,739.85,425.44,735.98,425.44z"/>
			<path d="M711.69,844.8c-34.69,0-67.3-10.29-95.7-28.37l-4.97,0.13c0,0,32.73,75.23,207.25,75.23v-80.6l-3.17,0.08
				C784.95,832.54,749.55,844.8,711.69,844.8z"/>
			<path d="M711.69,851.8c-38.59,0-76.22-12.37-108.81-35.78c-31.53-22.65-57.23-54.71-74.3-92.71l12.77-5.74
				c33.33,74.16,98.6,120.23,170.35,120.23c35.76,0,70.67-11.54,100.93-33.36c29.6-21.35,53.72-51.63,69.73-87.58l12.79,5.7
				c-17.02,38.2-42.72,70.44-74.33,93.23C788.14,839.35,750.41,851.8,711.69,851.8z"/>
			<path d="M731.77,955.48c-18.41,0-37.28-2.46-56.41-7.37c-48.78-12.52-81.94-36.41-83.33-37.42c-3.12-2.28-3.81-6.65-1.54-9.78
				c2.27-3.12,6.65-3.81,9.78-1.54l0,0c0.32,0.23,32.72,23.51,79.03,35.3c26.95,6.86,53.3,8.55,78.32,5.02
				c31.17-4.4,60.45-16.98,87.04-37.39c3.07-2.35,7.46-1.78,9.82,1.29c2.35,3.07,1.78,7.46-1.29,9.82
				c-28.61,21.97-60.2,35.49-93.91,40.2C750.25,954.85,741.07,955.48,731.77,955.48z"/>
			<path d="M731.77,985.48c-18.41,0-37.28-2.46-56.41-7.37c-48.78-12.52-81.94-36.41-83.33-37.42c-3.12-2.28-3.81-6.65-1.54-9.78
				c2.27-3.12,6.65-3.81,9.78-1.54l0,0c0.32,0.23,32.72,23.51,79.03,35.3c26.95,6.86,53.3,8.55,78.32,5.02
				c31.17-4.4,60.45-16.98,87.04-37.39c3.07-2.35,7.46-1.78,9.82,1.29c2.35,3.07,1.78,7.46-1.29,9.82
				c-28.61,21.97-60.2,35.49-93.91,40.2C750.25,984.85,741.07,985.48,731.77,985.48z"/>
			<g>
				<path d="M818.27,914.5c-3.87,0-7-3.13-7-7v-85.24c-30.38,19.35-64.61,29.54-99.58,29.54c-33.8,0-66.92-9.51-96.52-27.63v80.99
					c0,3.87-3.13,7-7,7s-7-3.13-7-7v-93.98c0-2.62,1.46-5.01,3.78-6.22c2.33-1.2,5.12-1.01,7.26,0.5
					c29.92,21.15,64.32,32.33,99.48,32.33s69.56-11.18,99.48-32.33c1.18-0.84,2.59-1.28,4.04-1.28h3.06c3.87,0,7,3.13,7,7v96.32
					C825.27,911.37,822.13,914.5,818.27,914.5z"/>
				<path d="M608.16,919.71c-1.23,0-2.46-0.32-3.56-0.97c-7.92-4.68-12.38-7.91-12.56-8.05c-2.46-1.79-3.48-4.97-2.52-7.86
					c0.95-2.87,3.63-4.8,6.64-4.8c0.03,0,0.05,0,0.08,0l12,0.13c3.83,0.04,6.92,3.16,6.92,7v7.54c0,2.51-1.35,4.83-3.53,6.08
					C610.55,919.4,609.36,919.71,608.16,919.71z"/>
			</g>
		</g>
	</g>
	<path d="M727.5,1254.94c-71.2,0-140.27-13.95-205.31-41.45c-62.81-26.57-119.21-64.59-167.65-113.03
		c-48.44-48.44-86.46-104.84-113.03-167.65c-27.51-65.03-41.45-134.11-41.45-205.31s13.95-140.27,41.45-205.31
		c26.57-62.81,64.59-119.21,113.03-167.65c48.44-48.44,104.84-86.46,167.65-113.03c65.03-27.51,134.11-41.45,205.31-41.45
		s140.27,13.95,205.31,41.45c62.81,26.57,119.21,64.59,167.65,113.03c48.44,48.44,86.46,104.84,113.03,167.65
		c27.51,65.03,41.45,134.11,41.45,205.31s-13.95,140.27-41.45,205.31c-26.57,62.81-64.59,119.21-113.03,167.65
		c-48.44,48.44-104.84,86.46-167.65,113.03C867.77,1240.99,798.7,1254.94,727.5,1254.94z M727.5,220.06
		c-68.51,0-134.96,13.42-197.51,39.87c-60.42,25.56-114.69,62.15-161.3,108.75s-83.2,100.87-108.75,161.3
		c-26.46,62.55-39.87,129.01-39.87,197.51s13.42,134.96,39.87,197.51c25.56,60.42,62.15,114.69,108.75,161.3
		s100.87,83.19,161.3,108.75c62.55,26.46,129.01,39.87,197.51,39.87s134.96-13.42,197.51-39.87
		c60.42-25.56,114.69-62.15,161.3-108.75s83.2-100.87,108.75-161.3c26.46-62.55,39.87-129.01,39.87-197.51
		s-13.42-134.96-39.87-197.51c-25.56-60.42-62.15-114.69-108.75-161.3s-100.87-83.19-161.3-108.75
		C862.46,233.48,796.01,220.06,727.5,220.06z"/>
</g>
</svg>
