<?xml version="1.0" encoding="utf-8"?>
<!-- Generator: Adobe Illustrator 24.0.3, SVG Export Plug-In . SVG Version: 6.00 Build 0)  -->
<svg version="1.0" id="Layer_1" xmlns="http://www.w3.org/2000/svg" xmlns:xlink="http://www.w3.org/1999/xlink" x="0px" y="0px"
	 viewBox="0 0 1455 1455" enable-background="new 0 0 1455 1455" xml:space="preserve">
<g>
	<g>
		<defs>
			<circle id="SVGID_13_" cx="727.5" cy="727.5" r="517.44"/>
		</defs>
		<clipPath id="SVGID_2_">
			<use xlink:href="#SVGID_13_"  overflow="visible"/>
		</clipPath>
		<g clip-path="url(#SVGID_2_)">
			<path d="M731.91,801.12c-21.85,0-51.37-14.36-80.98-39.39c-27.26-23.04-49.02-50.54-56.79-71.77
				c-12.6-34.42-18.98-94.41-18.98-178.28c0-3.87,3.13-7,7-7s7,3.13,7,7c0,81.07,6.27,141.05,18.13,173.47
				c6.87,18.79,27.55,44.65,52.68,65.89c26.73,22.59,53.62,36.08,71.95,36.08c21.45,0,48.62-13.41,74.54-36.8
				c23.73-21.41,42.67-47.76,49.44-68.76c8.85-27.48,22.22-109.82,22.22-171.32c0-3.87,3.13-7,7-7s7,3.13,7,7
				c0,42.61-8.92,132.2-22.9,175.61c-7.47,23.21-27.93,51.89-53.38,74.86C776.87,795.88,746.53,801.12,731.91,801.12z"/>
			<path d="M732.44,717.46c-8.37,0-17.59-4.73-27.42-14.06c-6.94-6.59-11.66-13.12-11.86-13.39c-1.61-2.24-1.1-5.37,1.14-6.98
				c2.24-1.61,5.36-1.1,6.98,1.14l0,0c4.67,6.48,19.37,23.29,31.16,23.29c10.32,0,24.16-13.67,28.62-18.93
				c1.79-2.11,4.94-2.37,7.05-0.58c2.11,1.78,2.37,4.94,0.59,7.04C766.76,697.29,749.22,717.46,732.44,717.46z"/>
			<ellipse cx="661.09" cy="580.61" rx="14.31" ry="19.08"/>
			<ellipse cx="801.8" cy="580.61" rx="14.31" ry="19.08"/>
			<path d="M732.45,655.46c-1.36,0-2.72-0.55-3.71-1.64c-1.85-2.05-1.7-5.21,0.35-7.06c3.57-3.25,7.81-8.37,8.17-10.52
				c0.45-2.7-1.21-14.38-3.01-23.66c-0.53-2.71,1.24-5.33,3.96-5.86c2.71-0.52,5.33,1.24,5.86,3.96c0.96,4.94,4.01,21.5,3.06,27.22
				c-1.13,6.76-9.62,14.74-11.32,16.28C734.85,655.03,733.64,655.46,732.45,655.46z"/>
			<path d="M629.3,551.55c-1.55,0-3.08-0.72-4.05-2.07c-1.62-2.23-1.13-5.35,1.1-6.97c0.77-0.56,19.08-13.68,42.69-13.68
				c7.74,0,27.42,5.9,29.64,6.58c2.64,0.8,4.13,3.59,3.33,6.24c-0.8,2.64-3.6,4.14-6.24,3.33c-7.83-2.38-22.02-6.14-26.73-6.14
				c-20.28,0-36.65,11.65-36.82,11.77C631.34,551.24,630.32,551.55,629.3,551.55z"/>
			<path d="M837.93,551.55c-1.02,0-2.04-0.31-2.93-0.95c-0.24-0.17-16.59-11.77-36.82-11.77c-4.72,0-18.9,3.77-26.73,6.14
				c-2.65,0.8-5.43-0.69-6.24-3.33c-0.8-2.64,0.69-5.43,3.33-6.24c2.22-0.67,21.89-6.58,29.64-6.58c23.62,0,41.92,13.12,42.69,13.68
				c2.23,1.62,2.73,4.75,1.1,6.99C841,550.84,839.48,551.55,837.93,551.55z"/>
			<path d="M582.32,546.41c-1.84,0-3.67-0.72-5.04-2.15c-2.68-2.79-2.6-7.22,0.19-9.9l55.13-53.06c1.93-1.86,4.75-2.45,7.27-1.53
				c2.08,0.76,3.65,2.46,4.28,4.53c1.69,0.23,4.8,0.05,6.62-0.06c1.25-0.07,2.54-0.15,3.78-0.17l151.79-3.09
				c1.26-0.02,2.58,0,3.97,0.02c2.12,0.04,6.19,0.11,8.19-0.33c0.6-2.18,2.23-3.97,4.43-4.74c2.69-0.94,5.69-0.16,7.57,1.98
				c0.29,0.33,29.77,33.48,56.65,41.63c3.7,1.12,5.79,5.03,4.67,8.73c-1.12,3.7-5.03,5.79-8.73,4.67
				c-23.5-7.12-47.21-29.27-57.63-39.95c-1.08,0.52-2.33,0.97-3.77,1.3c-3.73,0.85-7.92,0.77-11.62,0.71
				c-1.25-0.02-2.43-0.05-3.43-0.02l-151.79,3.09c-0.98,0.02-2.08,0.08-3.25,0.15c-3.45,0.2-7.36,0.43-10.88-0.33
				c-1.38-0.3-2.65-0.75-3.78-1.33l-49.76,47.88C585.81,545.76,584.06,546.41,582.32,546.41z"/>
			<path d="M740.84,1080.12c-44.57,0-106.69-19.29-162.11-50.35c-57.44-32.18-91.73-67.6-91.73-94.73
				c0-19.92,5.51-65.91,11.9-119.16c8.6-71.71,18.34-152.99,18.15-198.26c-0.03-7.66-0.29-16.33-0.56-25.5
				c-1.83-61.44-4.59-154.29,52.35-212.94c35.16-36.22,88.92-54.59,159.8-54.59c72.54,0,128.06,19,165.01,56.48
				c61.04,61.92,59.64,160.54,58.71,225.79c-0.09,6.69-0.18,13-0.2,18.9c-0.06,19.58,8.45,74.12,17.45,131.86
				c11.67,74.81,23.74,152.17,21.34,178.05c-1.37,14.81-11.79,31.33-30.97,49.13c-16.62,15.42-39.36,31.29-65.77,45.9
				C839.12,1061.18,780.35,1080.12,740.84,1080.12z M531.05,617.56c0.2,46.14-9.6,127.87-18.25,199.99
				c-6.33,52.8-11.8,98.41-11.8,117.49c0,21.34,33.2,53.73,84.57,82.52c53.45,29.95,112.95,48.56,155.27,48.56
				c36.72,0,94.26-18.71,146.6-47.66c52.37-28.97,87.52-61.96,89.57-84.06c2.24-24.14-10.23-104.08-21.23-174.6
				c-9.09-58.3-17.68-113.38-17.62-134.06c0.02-5.98,0.11-12.33,0.2-19.06c0.89-62.93,2.25-158.02-54.68-215.77
				c-34.22-34.71-86.38-52.31-155.04-52.31c-66.95,0-117.34,16.94-149.76,50.34c-23.21,23.91-37.79,56.1-44.56,98.39
				c-5.86,36.59-4.74,74.18-3.84,104.38C530.75,600.97,531.02,609.72,531.05,617.56z"/>
			<path d="M582.31,498.74c-0.67,0-1.35-0.1-2.02-0.3c-3.68-1.11-5.78-4.97-4.69-8.66c0.23-0.79,5.97-19.52,29.5-37.85
				c30.5-23.75,75.31-35.79,133.21-35.79c61.05,0,98.91,18.82,119.93,34.6c23.22,17.45,31.68,35.08,32.03,35.82
				c1.64,3.5,0.14,7.67-3.36,9.31c-3.5,1.65-7.67,0.14-9.31-3.36c-0.06-0.13-7.7-15.74-28.49-31.12
				c-34.91-25.83-79.52-31.26-110.79-31.26c-37.15,0-88.76,5.57-123.65,32.09c-20.52,15.6-25.61,31.4-25.65,31.55
				C588.08,496.8,585.31,498.74,582.31,498.74z"/>
			<path d="M743.05,1300.41c-50.72,0-102.44-8.58-153.72-25.49c-40.95-13.51-81.71-32.33-121.16-55.95
				c-67.17-40.21-106.71-79.86-108.36-81.53l-3.25-3.29l1.75-4.28c1.47-3.6,36.39-138.54,61.77-160.79
				c21.35-18.72,30.14-22.56,67.11-38.7l4-1.75c3.54-1.55,7.67,0.07,9.22,3.61c1.55,3.54-0.07,7.67-3.61,9.22l-4.01,1.75
				c-37.09,16.2-43.77,19.12-63.49,36.4c-17.95,15.74-45.08,124.69-56.23,151.2c10.83,10.26,47.66,43.51,102.63,76.37
				c38.53,23.04,78.31,41.38,118.24,54.53c49.79,16.39,99.95,24.71,149.09,24.71c84.96,0,173.48-42.66,232.79-78.45
				c54.6-32.95,95.13-66.29,106.68-76.1c-8.11-27.29-28.83-138.61-45.88-155.29c-2-1.96-3.76-3.7-5.34-5.27
				c-12.86-12.72-12.86-12.72-39.89-25.14c-3.1-1.42-6.54-3-10.37-4.77c-3.51-1.62-5.04-5.78-3.42-9.29
				c1.62-3.51,5.78-5.04,9.29-3.42c3.82,1.77,7.25,3.34,10.34,4.76c28.18,12.94,29.28,13.45,43.89,27.91
				c1.56,1.55,3.3,3.27,5.29,5.21c24.34,23.82,49.73,162,50.8,165.74l1.21,4.24l-3.3,2.92c-0.45,0.4-46.17,40.68-111.85,80.34
				c-38.64,23.33-76.58,41.94-112.77,55.29C825.03,1291.89,782.14,1300.41,743.05,1300.41z"/>
			<path d="M752.14,851.81c-0.17,0-0.35-0.01-0.52-0.02c-65.87-4.84-110.42-33.29-136.2-56.3c-28.02-25.01-40.33-48.75-40.84-49.75
				c-1.76-3.44-0.39-7.66,3.05-9.42c3.44-1.76,7.65-0.4,9.42,3.04c0.15,0.29,11.94,22.83,38.15,46.09
				c24.11,21.39,65.79,47.84,127.45,52.37c3.86,0.28,6.75,3.64,6.47,7.5C758.84,849,755.77,851.81,752.14,851.81z"/>
			<path d="M687.69,935.74c-7,0-14.12-0.2-21.36-0.6c-6.07,0.07-83.63,0.06-126.52-45.51c-2.65-2.82-2.52-7.25,0.3-9.89
				c2.81-2.65,7.25-2.52,9.89,0.3c11.27,11.97,33.01,27.99,72.59,36.3c24.13,5.07,43.58,4.81,43.77,4.8l0.25,0l0.26,0.01
				c49.52,2.76,92.89-4.15,128.92-20.54c28.61-13.01,52.73-32.03,71.68-56.52c32.34-41.78,38.5-85.26,38.56-85.7
				c0.52-3.83,4.04-6.52,7.87-6c3.83,0.52,6.52,4.04,6,7.87c-0.26,1.93-6.75,47.67-41.37,92.4c-20.36,26.31-46.26,46.73-76.96,60.7
				C768.86,928.23,730.63,935.74,687.69,935.74z"/>
			<path d="M758.93,1020.84c-14.94,0-29.87-1.29-44.68-3.89c-54.05-9.46-87.58-32.7-88.98-33.68c-3.16-2.22-3.92-6.59-1.7-9.75
				c2.22-3.16,6.58-3.92,9.75-1.71l0,0c0.32,0.23,32.83,22.65,83.99,31.46c29.93,5.16,60.33,4.72,90.37-1.3
				c37.62-7.54,74.82-23.91,110.58-48.67c3.18-2.2,7.54-1.41,9.74,1.77c2.2,3.18,1.41,7.54-1.77,9.74
				c-37.48,25.95-76.59,43.1-116.25,50.97C793.03,1019.16,775.97,1020.84,758.93,1020.84z"/>
		</g>
	</g>
	<path d="M727.5,1254.94c-71.2,0-140.27-13.95-205.31-41.45c-62.81-26.57-119.21-64.59-167.65-113.03s-86.46-104.84-113.03-167.65
		c-27.51-65.03-41.45-134.11-41.45-205.31s13.95-140.27,41.45-205.31c26.57-62.81,64.59-119.21,113.03-167.65
		s104.84-86.46,167.65-113.03c65.03-27.51,134.11-41.45,205.31-41.45s140.27,13.95,205.31,41.45
		c62.81,26.57,119.21,64.59,167.65,113.03s86.46,104.84,113.03,167.65c27.51,65.03,41.45,134.11,41.45,205.31
		s-13.95,140.27-41.45,205.31c-26.57,62.81-64.59,119.21-113.03,167.65s-104.84,86.46-167.65,113.03
		C867.77,1240.99,798.7,1254.94,727.5,1254.94z M727.5,220.06c-68.51,0-134.96,13.42-197.51,39.87
		c-60.42,25.56-114.69,62.15-161.3,108.75s-83.2,100.87-108.75,161.3c-26.46,62.55-39.87,129.01-39.87,197.51
		s13.42,134.96,39.87,197.51c25.56,60.42,62.15,114.69,108.75,161.3s100.87,83.2,161.3,108.75
		c62.55,26.46,129.01,39.87,197.51,39.87s134.96-13.42,197.51-39.87c60.42-25.56,114.69-62.15,161.3-108.75
		s83.2-100.87,108.75-161.3c26.46-62.55,39.87-129.01,39.87-197.51s-13.42-134.96-39.87-197.51
		c-25.56-60.42-62.15-114.69-108.75-161.3s-100.87-83.2-161.3-108.75C862.46,233.48,796.01,220.06,727.5,220.06z"/>
</g>
</svg>
