<?xml version="1.0" encoding="utf-8"?>
<!-- Generator: Adobe Illustrator 22.1.0, SVG Export Plug-In . SVG Version: 6.00 Build 0)  -->
<svg version="1.0" xmlns="http://www.w3.org/2000/svg" xmlns:xlink="http://www.w3.org/1999/xlink" x="0px" y="0px"
	 viewBox="0 0 1455 1455" enable-background="new 0 0 1455 1455" xml:space="preserve">
<g id="Background">
	<circle fill="#00AEEF" cx="727.5" cy="727.5" r="697.7"/>
</g>
<g id="Color">
	<g>
		<path fill="#E4B69D" d="M1217.8,820.5c0-25.1-14.1-46.9-34.8-58c-3.3,43.1-12.5,84.6-27,123.5
			C1190.5,884,1217.8,855.5,1217.8,820.5z"/>
		<path fill="#E4B69D" d="M237.2,820.5c0,34.9,27.3,63.5,61.7,65.6c-14.4-39-23.7-80.4-27-123.5
			C251.3,773.6,237.2,795.4,237.2,820.5z"/>
	</g>
	<circle fill="#F1DBCB" cx="727.5" cy="727.5" r="456.9"/>
	<circle fill="#3C2415" cx="526.9" cy="832.5" r="37"/>
	<circle fill="#3C2415" cx="924.6" cy="832.5" r="37"/>
	<ellipse fill="#EDBDAE" cx="495.1" cy="955.6" rx="68.7" ry="39.4"/>
	<ellipse fill="#EDBDAE" cx="957.6" cy="955.6" rx="68.7" ry="39.4"/>
	<path fill="none" stroke="#3C2415" stroke-width="18" stroke-linecap="round" stroke-miterlimit="10" d="M807.9,1006.9
		c-14.5,29.7-45.1,50.2-80.4,50.2c-37,0-68.8-22.5-82.4-54.6"/>
	<path fill="none" d="M1165.5,577.3C1165.5,577.3,1165.5,577.3,1165.5,577.3C1165.5,577.3,1165.5,577.3,1165.5,577.3
		C1165.5,577.3,1165.5,577.3,1165.5,577.3z"/>
	<path fill="none" d="M279.7,616.8C279.7,616.8,279.7,616.8,279.7,616.8C279.7,616.8,279.7,616.8,279.7,616.8
		C279.7,616.8,279.7,616.8,279.7,616.8z"/>
	<path fill="#E37D26" d="M1165.5,577.3c-56.1-188.9-231-326.6-438-326.6c-221.2,0-405.7,157.3-447.8,366.1c0,0,0,0,0,0
		c16.6,3.1,37.9,6.1,55.4,6.1c70.2,0,134.1-25.8,181.3-67.8c53.5,90.5,182.3,154.3,332.7,154.3
		C982.9,709.4,1103.7,652.1,1165.5,577.3C1165.5,577.3,1165.5,577.3,1165.5,577.3z M281.6,609.2c0,0.1-0.1,0.3-0.1,0.4
		C281.5,609.5,281.6,609.3,281.6,609.2z"/>
</g>
</svg>
