<?xml version="1.0" encoding="utf-8"?>
<!-- Generator: Adobe Illustrator 22.1.0, SVG Export Plug-In . SVG Version: 6.00 Build 0)  -->
<svg version="1.0" xmlns="http://www.w3.org/2000/svg" xmlns:xlink="http://www.w3.org/1999/xlink" x="0px" y="0px"
	 viewBox="0 0 1455 1455" enable-background="new 0 0 1455 1455" xml:space="preserve">
<g id="Background">
	<circle fill="#2B3990" cx="727.5" cy="727.5" r="697.7"/>
</g>
<g id="Color">
	<circle fill="#F1DBCB" cx="727.5" cy="777.5" r="456.9"/>
	<path fill="#805B2D" d="M1260.2,913.2l-51.3-333.5c-26.5-172.2-174.7-299.4-348.9-299.4H595c-174.3,0-322.5,127.2-348.9,299.4
		l-51.3,333.5c-11.9,77.6,48.1,147.5,126.6,147.5h47.7c-61.6-77.9-98.4-176.3-98.4-283.3c0-252.3,204.5-456.9,456.9-456.9
		s456.9,204.5,456.9,456.9c0,107-36.8,205.4-98.4,283.3h47.7C1212.1,1060.8,1272.2,990.8,1260.2,913.2z"/>
	<g>
		<path fill="#E4B69D" d="M1217.8,870.5c0-25.1-14.1-46.9-34.8-58c-3.3,43.1-12.5,84.6-27,123.5
			C1190.5,934,1217.8,905.5,1217.8,870.5z"/>
		<path fill="#E4B69D" d="M237.2,870.5c0,34.9,27.3,63.5,61.7,65.6c-14.4-39-23.7-80.4-27-123.5
			C251.3,823.6,237.2,845.4,237.2,870.5z"/>
	</g>
	<circle fill="#3C2415" cx="526.9" cy="882.5" r="37"/>
	<circle fill="#3C2415" cx="924.6" cy="882.5" r="37"/>
	<ellipse fill="#EDBDAE" cx="495.1" cy="1005.6" rx="68.7" ry="39.4"/>
	<ellipse fill="#EDBDAE" cx="957.6" cy="1005.6" rx="68.7" ry="39.4"/>
	<path fill="none" stroke="#3C2415" stroke-width="18" stroke-linecap="round" stroke-miterlimit="10" d="M807.9,1056.9
		c-14.5,29.7-45.1,50.2-80.4,50.2c-37,0-68.8-22.5-82.4-54.6"/>
	<path fill="#8B693D" d="M727.5,294.4L727.5,294.4c-261.6,0-473.6,208.2-473.6,465.1v183.4c0,65.1,53.7,117.9,120,117.9h0v-471
		c0-26.7,22-48.4,49.2-48.4h27.6v116.1c0,39.6,32.7,71.7,73,71.7h407.5c40.3,0,73-32.1,73-71.7V541.4h27.6
		c27.2,0,49.2,21.6,49.2,48.4v471h0c66.3,0,120-52.8,120-117.9V759.5C1201.1,502.6,989.1,294.4,727.5,294.4z"/>
</g>
</svg>
