<?xml version="1.0" encoding="utf-8"?>
<!-- Generator: Adobe Illustrator 22.1.0, SVG Export Plug-In . SVG Version: 6.00 Build 0)  -->
<svg version="1.0" xmlns="http://www.w3.org/2000/svg" xmlns:xlink="http://www.w3.org/1999/xlink" x="0px" y="0px"
	 viewBox="0 0 1455 1455" enable-background="new 0 0 1455 1455" xml:space="preserve">
<g id="Background">
	<circle fill="#00A79D" cx="727.5" cy="727.5" r="697.7"/>
</g>
<g id="Color">
	<circle fill="#F6DFC0" cx="727.5" cy="817.5" r="456.9"/>
	<g>
		<path fill="#DFCAB4" d="M1217.8,910.5c0-25.1-14.1-46.9-34.8-58c-3.3,43.1-12.5,84.6-27,123.5
			C1190.5,974,1217.8,945.5,1217.8,910.5z"/>
		<path fill="#DFCAB4" d="M237.2,910.5c0,34.9,27.3,63.5,61.7,65.6c-14.4-39-23.7-80.4-27-123.5
			C251.3,863.6,237.2,885.4,237.2,910.5z"/>
	</g>
	<circle fill="#3C2415" cx="526.9" cy="922.5" r="37"/>
	<circle fill="#3C2415" cx="924.6" cy="922.5" r="37"/>
	<ellipse fill="#EDBDAE" cx="495.1" cy="1045.6" rx="68.7" ry="39.4"/>
	<ellipse fill="#EDBDAE" cx="957.6" cy="1045.6" rx="68.7" ry="39.4"/>
	<path fill="none" stroke="#3C2415" stroke-width="18" stroke-linecap="round" stroke-miterlimit="10" d="M807.9,1096.9
		c-14.5,29.7-45.1,50.2-80.4,50.2c-37,0-68.8-22.5-82.4-54.6"/>
	<path fill="#DA1C5C" d="M727.5,334.4L727.5,334.4c-261.6,0-473.6,208.2-473.6,465.1c0,0,0,301.3,120,301.3h0v-471
		c0-26.7,22-48.4,49.2-48.4h27.6v116.1c0,39.6,32.7,71.7,73,71.7h407.5c40.3,0,73-32.1,73-71.7V581.4h27.6
		c27.2,0,49.2,21.6,49.2,48.4v471h0c120,0,120-301.3,120-301.3C1201.1,542.6,989.1,334.4,727.5,334.4z"/>
	<path fill="#AA154C" d="M1131.8,340.8c-56.1,0-103.9,35.1-122.8,84.6c62.7,45.6,113.5,105.9,147.1,175.9
		c61-11.4,107.1-64.9,107.1-129.1C1263.1,399.6,1204.3,340.8,1131.8,340.8z"/>
	<path fill="#AA154C" d="M447.2,424.5c-19.1-49-66.7-83.7-122.5-83.7c-72.6,0-131.4,58.8-131.4,131.4c0,63.8,45.4,116.9,105.7,128.9
		C332.9,530.8,384.1,470.1,447.2,424.5z"/>
</g>
</svg>
