<?xml version="1.0" encoding="utf-8"?>
<!-- Generator: Adobe Illustrator 22.1.0, SVG Export Plug-In . SVG Version: 6.00 Build 0)  -->
<svg version="1.0" xmlns="http://www.w3.org/2000/svg" xmlns:xlink="http://www.w3.org/1999/xlink" x="0px" y="0px"
	 viewBox="0 0 1455 1455" enable-background="new 0 0 1455 1455" xml:space="preserve">
<g id="Background">
	<circle fill="#8DC63F" cx="727.5" cy="727.5" r="697.7"/>
</g>
<g id="Color">
	<circle fill="#8C715D" cx="727.5" cy="727.5" r="456.9"/>
	<path fill="#72594B" d="M1217.8,820.5c0-25.1-14.1-46.9-34.8-58c-3.3,43.1-12.5,84.6-27,123.5
		C1190.5,884,1217.8,855.5,1217.8,820.5z"/>
	<path fill="#72594B" d="M237.2,820.5c0,34.9,27.3,63.5,61.7,65.6c-14.4-39-23.7-80.4-27-123.5C251.3,773.6,237.2,795.4,237.2,820.5
		z"/>
	<circle fill="#3C2415" cx="526.9" cy="802.5" r="37"/>
	<circle fill="#3C2415" cx="924.6" cy="802.5" r="37"/>
	<ellipse fill="#A45D4B" cx="478.9" cy="890.9" rx="60.5" ry="34.7"/>
	<ellipse fill="#A45D4B" cx="975.2" cy="890.9" rx="60.5" ry="34.7"/>
	<path fill="#351B10" d="M1113.7,790.9c-17.2,63.8-69.7,212.1-185.6,199.6v0c0-41.1-33.3-74.4-74.4-74.4H727.5H601.2
		c-41.1,0-74.4,33.3-74.4,74.4v0C411,1003,358.4,854.8,341.3,790.9c-4.5-16.7-19.7-28.4-37-28.4H272v0
		c17.9,235.9,215,421.8,455.5,421.8s437.6-185.9,455.5-421.8v0h-32.3C1133.4,762.5,1118.2,774.2,1113.7,790.9z"/>
	<path fill="none" stroke="#5B3A25" stroke-width="18" stroke-linecap="round" stroke-miterlimit="10" d="M807.9,1006.9
		c-14.5,29.7-45.1,50.2-80.4,50.2c-37,0-68.8-22.5-82.4-54.6"/>
</g>
</svg>
