<?xml version="1.0" encoding="utf-8"?>
<!-- Generator: Adobe Illustrator 22.1.0, SVG Export Plug-In . SVG Version: 6.00 Build 0)  -->
<svg version="1.0" xmlns="http://www.w3.org/2000/svg" xmlns:xlink="http://www.w3.org/1999/xlink" x="0px" y="0px"
	 viewBox="0 0 1455 1455" enable-background="new 0 0 1455 1455" xml:space="preserve">
<g id="Background">
	<circle fill="#EF4136" cx="727.5" cy="727.5" r="697.7"/>
</g>
<g id="Color">
	<circle fill="#EACBC6" cx="727.5" cy="857.5" r="456.9"/>
	<g>
		<path fill="#E0ADA6" d="M1217.8,950.5c0-25.1-14.1-46.9-34.8-58c-3.3,43.1-12.5,84.6-27,123.5
			C1190.5,1014,1217.8,985.5,1217.8,950.5z"/>
		<path fill="#E0ADA6" d="M237.2,950.5c0,34.9,27.3,63.5,61.7,65.6c-14.4-39-23.7-80.4-27-123.5
			C251.3,903.6,237.2,925.4,237.2,950.5z"/>
	</g>
	<circle fill="#3C2415" cx="526.9" cy="962.5" r="37"/>
	<circle fill="#3C2415" cx="924.6" cy="962.5" r="37"/>
	<ellipse fill="#F6977E" cx="495.1" cy="1085.6" rx="68.7" ry="39.4"/>
	<ellipse fill="#F6977E" cx="957.6" cy="1085.6" rx="68.7" ry="39.4"/>
	<path fill="none" stroke="#3C2415" stroke-width="18" stroke-linecap="round" stroke-miterlimit="10" d="M807.9,1136.9
		c-14.5,29.7-45.1,50.2-80.4,50.2c-37,0-68.8-22.5-82.4-54.6"/>
	<path fill="#EDAE1F" d="M1170.7,746.2C1121,547.7,941.4,400.6,727.5,400.6c-252.3,0-456.9,204.5-456.9,456.9
		c0,11,0.4,21.9,1.2,32.7c80.7-2.5,150.4-42.7,186.2-100.8c49,25.4,106.4,40.1,167.7,40.1c134.7,0,250.4-70.6,300.4-171.5
		c56.7,54.4,138.8,88.5,230,88.5C1161,746.5,1165.8,746.4,1170.7,746.2z"/>
	<path fill="#D39C1B" d="M727.5,400.6c58.4,0,114.2,11,165.5,30.9c11.3-24.3,17.6-51.3,17.6-79.8c0-104.9-85-189.9-189.9-189.9
		c-104.9,0-189.9,85-189.9,189.9c0,30.3,7.1,59,19.8,84.5C605,413.3,664.8,400.6,727.5,400.6z"/>
</g>
</svg>
