<?xml version="1.0" encoding="utf-8"?>
<!-- Generator: Adobe Illustrator 22.1.0, SVG Export Plug-In . SVG Version: 6.00 Build 0)  -->
<svg version="1.0" xmlns="http://www.w3.org/2000/svg" xmlns:xlink="http://www.w3.org/1999/xlink" x="0px" y="0px"
	 viewBox="0 0 1455 1455" enable-background="new 0 0 1455 1455" xml:space="preserve">
<g id="Background">
	<circle fill="#F7941D" cx="727.5" cy="727.5" r="697.7"/>
</g>
<g id="Color">
	<circle fill="#F5E0CD" cx="727.5" cy="817.5" r="456.9"/>
	<g>
		<path fill="#ECC19C" d="M1217.8,910.5c0-25.1-14.1-46.9-34.8-58c-3.3,43.1-12.5,84.6-27,123.5
			C1190.5,974,1217.8,945.5,1217.8,910.5z"/>
		<path fill="#ECC19C" d="M237.2,910.5c0,34.9,27.3,63.5,61.7,65.6c-14.4-39-23.7-80.4-27-123.5
			C251.3,863.6,237.2,885.4,237.2,910.5z"/>
	</g>
	<circle fill="#3C2415" cx="526.9" cy="922.5" r="37"/>
	<circle fill="#3C2415" cx="924.6" cy="922.5" r="37"/>
	<ellipse fill="#EDBDAE" cx="495.1" cy="1045.6" rx="68.7" ry="39.4"/>
	<ellipse fill="#EDBDAE" cx="957.6" cy="1045.6" rx="68.7" ry="39.4"/>
	<path fill="none" stroke="#3C2415" stroke-width="18" stroke-linecap="round" stroke-miterlimit="10" d="M807.9,1096.9
		c-14.5,29.7-45.1,50.2-80.4,50.2c-37,0-68.8-22.5-82.4-54.6"/>
	<path fill="#39B54A" d="M874.4,495.6H580.6l-33.4-272.2c-3.5-28.6,18.8-53.8,47.6-53.8h265.4c28.8,0,51.1,25.2,47.6,53.8
		L874.4,495.6z"/>
	<path fill="#46663D" d="M1184.4,817.5c0-196-123.5-363.2-296.9-428.1l-13,106.1l34.9-35.2c9.3-9.4,23.7-11,34.9-4
		c57.5,36,222.8,157.7,240,373.2C1184.3,825.5,1184.4,821.5,1184.4,817.5z"/>
	<path fill="#46663D" d="M270.6,817.5c0,4.5,0.1,9,0.2,13.5l0.5,0.3c16.4-216.6,182.5-338.8,240.2-375c11.1-7,25.6-5.3,34.9,4
		l34.9,35.2l-13.1-106.4C394.4,453.8,270.6,621.2,270.6,817.5z"/>
</g>
</svg>
